<svg width="171" height="144" viewBox="0 0 171 144" fill="none" xmlns="http://www.w3.org/2000/svg">
<path fill-rule="evenodd" clip-rule="evenodd" d="M146.969 45.6229C146.969 47.1388 146.827 48.6187 146.579 50.0625C159.982 52.4086 170.159 64.2474 170.159 78.5046C170.159 94.4582 157.465 107.38 141.792 107.38H87.8372V117.249H123.203C123.65 114.7 125.875 112.762 128.553 112.762C131.553 112.762 133.985 115.194 133.985 118.194C133.985 121.194 131.553 123.626 128.553 123.626C126.043 123.626 123.931 121.924 123.308 119.611H86.6564C86.0042 119.611 85.4755 119.082 85.4755 118.43L85.4755 107.38H78.8625V118.666C78.8625 118.98 78.7381 119.28 78.5167 119.501C78.2952 119.723 77.9949 119.847 77.6817 119.847L41.6894 119.847C39.7437 119.847 38.1468 121.444 38.1468 123.39V130.634C41.3527 131.113 43.8115 133.878 43.8115 137.217C43.8115 140.894 40.8313 143.874 37.1551 143.874C33.4789 143.874 30.4987 140.894 30.4987 137.217C30.4987 134.011 32.7661 131.334 35.7851 130.702V123.39C35.7851 120.14 38.4393 117.486 41.6894 117.486L76.5008 117.486V107.38H35.4168C19.7442 107.38 7.05005 94.4582 7.05005 78.5046C7.05005 65.0054 16.1983 53.6719 28.5024 50.5317C28.4849 50.2389 28.4654 49.9461 28.4458 49.6528C28.3856 48.7528 28.3251 47.8478 28.3251 46.9223C28.3251 21.0067 48.9619 0 74.421 0C90.6964 0 104.951 8.59039 113.106 21.5482C115.836 20.5375 118.744 19.96 121.758 19.96C135.693 19.96 146.969 31.4379 146.969 45.6229ZM37.1551 133.01C39.4788 133.01 41.3625 134.894 41.3625 137.217C41.3625 139.541 39.4788 141.425 37.1551 141.425C34.8314 141.425 32.9477 139.541 32.9477 137.217C32.9477 134.894 34.8314 133.01 37.1551 133.01Z" fill="black"/>
<path d="M139.529 50.0625C139.777 48.6187 139.919 47.1388 139.919 45.6229C139.919 31.4379 128.643 19.96 114.708 19.96C111.694 19.96 108.786 20.5375 106.056 21.5482C97.9006 8.59039 83.6463 0 67.3709 0C41.9118 0 21.275 21.0067 21.275 46.9223C21.275 48.1495 21.3814 49.3406 21.4523 50.5317C9.14826 53.6719 0 65.0054 0 78.5046C0 94.4582 12.6941 107.38 28.3667 107.38H134.742C150.414 107.38 163.109 94.4582 163.109 78.5046C163.109 64.2474 152.932 52.4086 139.529 50.0625Z" fill="white"/>
<path fill-rule="evenodd" clip-rule="evenodd" d="M136.572 49.5542L136.065 52.5018L139.011 53.0175C150.973 55.1113 160.109 65.6982 160.109 78.5046C160.109 92.8518 148.708 104.38 134.742 104.38H28.3667C14.401 104.38 3 92.8518 3 78.5046C3 66.3818 11.2135 56.2409 22.1942 53.4385L24.5942 52.826L24.447 50.3534C24.4266 50.01 24.405 49.6867 24.3843 49.3764C24.3262 48.5063 24.275 47.7392 24.275 46.9223C24.275 22.6131 43.6187 3 67.3709 3C82.5565 3 95.8787 11.01 103.517 23.1462L104.814 25.2068L107.097 24.3616C109.525 23.4629 112.081 22.96 114.708 22.96C126.936 22.96 136.919 33.0443 136.919 45.6229C136.919 46.951 136.795 48.2601 136.572 49.5542ZM139.529 50.0625C139.777 48.6187 139.919 47.1388 139.919 45.6229C139.919 31.4379 128.643 19.96 114.708 19.96C111.694 19.96 108.786 20.5375 106.056 21.5482C97.9006 8.59039 83.6463 0 67.3709 0C41.9118 0 21.275 21.0067 21.275 46.9223C21.275 47.8478 21.3355 48.7528 21.3957 49.6527C21.4153 49.9461 21.4349 50.2389 21.4523 50.5317C9.14826 53.6719 0 65.0054 0 78.5046C0 94.4582 12.6941 107.38 28.3667 107.38H134.742C150.414 107.38 163.109 94.4582 163.109 78.5046C163.109 64.2474 152.932 52.4086 139.529 50.0625ZM58.4942 75.3799C58.2595 75.3799 58.0888 75.2946 57.9822 75.1239C57.8542 74.9532 57.8435 74.7612 57.9502 74.5479L67.9662 53.0119C68.0728 52.7772 68.2542 52.6599 68.5102 52.6599H68.8302C69.0862 52.6599 69.2675 52.7772 69.3742 53.0119L79.3902 74.5479C79.4968 74.7612 79.4862 74.9532 79.3582 75.1239C79.2515 75.2946 79.0808 75.3799 78.8462 75.3799H75.2942C74.8035 75.3799 74.4302 75.1133 74.1742 74.5799L73.0222 72.0519H64.3182L63.1662 74.6119C62.9528 75.1239 62.5688 75.3799 62.0142 75.3799H58.4942ZM71.1022 67.6999L68.6702 62.4199H68.6382L66.2382 67.6999H71.1022ZM82.0177 74.7719V53.5879C82.0177 53.4172 82.071 53.2786 82.1777 53.1719C82.3057 53.0439 82.455 52.9799 82.6257 52.9799H90.3377C92.3003 52.9799 93.9857 53.6732 95.3937 55.0599C96.8017 56.4466 97.5057 58.1106 97.5057 60.0519C97.5057 62.0359 96.8017 63.7319 95.3937 65.1399C94.007 66.5479 92.3323 67.2519 90.3697 67.2519H87.0097V74.7719C87.0097 74.9212 86.9457 75.0599 86.8177 75.1879C86.6897 75.3159 86.551 75.3799 86.4017 75.3799H82.6257C82.455 75.3799 82.3057 75.3266 82.1777 75.2199C82.071 75.0919 82.0177 74.9426 82.0177 74.7719ZM87.0097 62.5799H90.0497C90.7537 62.5799 91.351 62.3346 91.8417 61.8439C92.3323 61.3532 92.5777 60.7559 92.5777 60.0519C92.5777 59.3906 92.3323 58.8359 91.8417 58.3879C91.351 57.9186 90.7537 57.6839 90.0497 57.6839H87.0097V62.5799ZM100.768 53.5879V74.7719C100.768 74.9212 100.832 75.0599 100.96 75.1879C101.088 75.3159 101.226 75.3799 101.376 75.3799H105.216C105.365 75.3799 105.504 75.3159 105.632 75.1879C105.76 75.0599 105.824 74.9212 105.824 74.7719V53.5879C105.824 53.4386 105.76 53.2999 105.632 53.1719C105.504 53.0439 105.365 52.9799 105.216 52.9799H101.376C101.226 52.9799 101.088 53.0439 100.96 53.1719C100.832 53.2999 100.768 53.4386 100.768 53.5879Z" fill="black"/>
</svg>
