<svg width="86" height="86" viewBox="0 0 86 86" fill="none" xmlns="http://www.w3.org/2000/svg">
<path d="M13.0391 8.58789C13.0391 8.03561 13.4868 7.58789 14.0391 7.58789H71.9706C72.5228 7.58789 72.9706 8.03561 72.9706 8.58789V54.9536C72.9706 55.5059 72.5228 55.9536 71.9706 55.9536H14.0391C13.4868 55.9536 13.0391 55.5059 13.0391 54.9536V8.58789Z" fill="white"/>
<path d="M2 79.0849L12.5143 68.0449H73.4972L63.2588 78.7953C63.0817 78.9812 62.9829 79.2282 62.9829 79.4849V83.8164H2V79.0849Z" fill="white"/>
<path d="M9.89453 53.7947C9.89453 53.2424 10.3422 52.7947 10.8945 52.7947H74.0832C74.6354 52.7947 75.0832 53.2424 75.0832 53.7947V68.6175C75.0832 69.1698 74.6354 69.6175 74.0832 69.6175H10.8945C10.3422 69.6175 9.89453 69.1698 9.89453 68.6175V53.7947Z" fill="white"/>
<path fill-rule="evenodd" clip-rule="evenodd" d="M16.0391 10.5879V52.9536H69.9706V10.5879H16.0391ZM14.0391 7.58789C13.4868 7.58789 13.0391 8.03561 13.0391 8.58789V54.9536C13.0391 55.5059 13.4868 55.9536 14.0391 55.9536H71.9706C72.5228 55.9536 72.9706 55.5059 72.9706 54.9536V8.58789C72.9706 8.03561 72.5228 7.58789 71.9706 7.58789H14.0391Z" fill="black"/>
<path fill-rule="evenodd" clip-rule="evenodd" d="M12.8945 55.7947V66.6175H72.0832V55.7947H12.8945ZM10.8945 52.7947C10.3422 52.7947 9.89453 53.2424 9.89453 53.7947V68.6175C9.89453 69.1698 10.3422 69.6175 10.8945 69.6175H74.0832C74.6354 69.6175 75.0832 69.1698 75.0832 68.6175V53.7947C75.0832 53.2424 74.6354 52.7947 74.0832 52.7947H10.8945Z" fill="black"/>
<path fill-rule="evenodd" clip-rule="evenodd" d="M23.5413 0.252197C23.4346 0.252197 23.3307 0.286354 23.2447 0.349669L13.2562 7.70968C13.083 7.83731 13.0108 8.06144 13.0771 8.26615C13.1433 8.47085 13.3331 8.61023 13.5482 8.61218L70.8814 9.13339V66.5449H12.5143C12.1038 66.5449 11.7112 66.7132 11.4281 67.0104L0.913793 78.0504C0.648162 78.3294 0.5 78.6998 0.5 79.0849V83.8164C0.5 84.6448 1.17157 85.3164 2 85.3164H61.1745C61.2416 85.349 61.3162 85.3666 61.3928 85.3666H65.5985C65.7132 85.3666 65.8244 85.3272 65.9134 85.2549L84.9947 69.7837C85.346 69.4988 85.55 69.0707 85.55 68.6185V50.118C85.55 49.2895 84.8784 48.618 84.05 48.618H81.3443V3.7522C81.3443 1.8192 79.7773 0.252197 77.8443 0.252197H23.5413ZM13.1572 69.5449H69.609L68.0562 71.583L62.1726 77.7608C61.7299 78.2256 61.4829 78.843 61.4829 79.4849V82.3164H3.5V79.6849L13.1572 69.5449ZM64.6757 47.6429L22.4785 47.6429V17.6802H64.6757V47.6429ZM21.3613 13.8943C20.2568 13.8943 19.3613 14.7897 19.3613 15.8943V47.6429C19.3613 48.7475 20.2568 49.6429 21.3613 49.6429H64.6757C65.7802 49.6429 66.6757 48.7475 66.6757 47.6429V15.8943C66.6757 14.7897 65.7802 13.8943 64.6757 13.8943H21.3613ZM52.4727 60.2114C51.9204 60.2114 51.4727 60.6591 51.4727 61.2114C51.4727 61.7637 51.9204 62.2114 52.4727 62.2114H66.667C67.2192 62.2114 67.667 61.7637 67.667 61.2114C67.667 60.6591 67.2192 60.2114 66.667 60.2114H52.4727ZM17.3027 61.2114C17.3027 60.6591 17.7505 60.2114 18.3027 60.2114H26.7142C27.2665 60.2114 27.7142 60.6591 27.7142 61.2114C27.7142 61.7637 27.2665 62.2114 26.7142 62.2114H18.3027C17.7505 62.2114 17.3027 61.7637 17.3027 61.2114Z" fill="black"/>
</svg>
