<svg width="192" height="311" viewBox="0 0 192 311" fill="none" xmlns="http://www.w3.org/2000/svg">
<path d="M-319.478 4.20024C-319.478 6.51997 -317.6 8.40048 -315.283 8.40048C-312.967 8.40048 -311.089 6.51997 -311.089 4.20024C-311.089 1.88051 -312.967 0 -315.283 0C-317.6 0 -319.478 1.88051 -319.478 4.20024Z" fill="#333333"/>
<path d="M-269.147 4.20024C-269.147 6.51997 -267.269 8.40048 -264.953 8.40048C-262.636 8.40048 -260.759 6.51997 -260.759 4.20024C-260.759 1.88051 -262.636 0 -264.953 0C-267.269 0 -269.147 1.88051 -269.147 4.20024Z" fill="#333333"/>
<path d="M-218.816 4.20024C-218.816 6.51997 -216.939 8.40048 -214.622 8.40048C-212.306 8.40048 -210.428 6.51997 -210.428 4.20024C-210.428 1.88051 -212.306 0 -214.622 0C-216.939 0 -218.816 1.88051 -218.816 4.20024Z" fill="#333333"/>
<path d="M-168.486 4.20024C-168.486 6.51997 -166.608 8.40048 -164.292 8.40048C-161.975 8.40048 -160.097 6.51997 -160.097 4.20024C-160.097 1.88051 -161.975 0 -164.292 0C-166.608 0 -168.486 1.88051 -168.486 4.20024Z" fill="#333333"/>
<path d="M-118.155 4.20024C-118.155 6.51997 -116.277 8.40048 -113.961 8.40048C-111.645 8.40048 -109.767 6.51997 -109.767 4.20024C-109.767 1.88051 -111.645 0 -113.961 0C-116.277 0 -118.155 1.88051 -118.155 4.20024Z" fill="#333333"/>
<path d="M-294.312 29.4017C-294.312 31.7214 -292.434 33.6019 -290.118 33.6019C-287.802 33.6019 -285.924 31.7214 -285.924 29.4017C-285.924 27.0819 -287.802 25.2014 -290.118 25.2014C-292.434 25.2014 -294.312 27.0819 -294.312 29.4017Z" fill="#333333"/>
<path d="M-243.982 29.4017C-243.982 31.7214 -242.104 33.6019 -239.787 33.6019C-237.471 33.6019 -235.593 31.7214 -235.593 29.4017C-235.593 27.0819 -237.471 25.2014 -239.787 25.2014C-242.104 25.2014 -243.982 27.0819 -243.982 29.4017Z" fill="#333333"/>
<path d="M-193.651 29.4017C-193.651 31.7214 -191.773 33.6019 -189.457 33.6019C-187.14 33.6019 -185.263 31.7214 -185.263 29.4017C-185.263 27.0819 -187.14 25.2014 -189.457 25.2014C-191.773 25.2014 -193.651 27.0819 -193.651 29.4017Z" fill="#333333"/>
<path d="M-143.32 29.4017C-143.32 31.7214 -141.443 33.6019 -139.126 33.6019C-136.81 33.6019 -134.932 31.7214 -134.932 29.4017C-134.932 27.0819 -136.81 25.2014 -139.126 25.2014C-141.443 25.2014 -143.32 27.0819 -143.32 29.4017Z" fill="#333333"/>
<path d="M-92.9898 29.4017C-92.9898 31.7214 -91.112 33.6019 -88.7956 33.6019C-86.4792 33.6019 -84.6014 31.7214 -84.6014 29.4017C-84.6014 27.0819 -86.4792 25.2014 -88.7956 25.2014C-91.112 25.2014 -92.9898 27.0819 -92.9898 29.4017Z" fill="#333333"/>
<path d="M-319.478 54.6031C-319.478 56.9228 -317.6 58.8033 -315.283 58.8033C-312.967 58.8033 -311.089 56.9228 -311.089 54.6031C-311.089 52.2834 -312.967 50.4029 -315.283 50.4029C-317.6 50.4029 -319.478 52.2834 -319.478 54.6031Z" fill="#333333"/>
<path d="M-269.147 54.6031C-269.147 56.9228 -267.269 58.8033 -264.953 58.8033C-262.636 58.8033 -260.759 56.9228 -260.759 54.6031C-260.759 52.2834 -262.636 50.4029 -264.953 50.4029C-267.269 50.4029 -269.147 52.2834 -269.147 54.6031Z" fill="#333333"/>
<path d="M-218.816 54.6031C-218.816 56.9228 -216.939 58.8033 -214.622 58.8033C-212.306 58.8033 -210.428 56.9228 -210.428 54.6031C-210.428 52.2834 -212.306 50.4029 -214.622 50.4029C-216.939 50.4029 -218.816 52.2834 -218.816 54.6031Z" fill="#333333"/>
<path d="M-168.486 54.6031C-168.486 56.9228 -166.608 58.8033 -164.292 58.8033C-161.975 58.8033 -160.097 56.9228 -160.097 54.6031C-160.097 52.2834 -161.975 50.4029 -164.292 50.4029C-166.608 50.4029 -168.486 52.2834 -168.486 54.6031Z" fill="#333333"/>
<path d="M-118.155 54.6031C-118.155 56.9228 -116.277 58.8033 -113.961 58.8033C-111.645 58.8033 -109.767 56.9228 -109.767 54.6031C-109.767 52.2834 -111.645 50.4029 -113.961 50.4029C-116.277 50.4029 -118.155 52.2834 -118.155 54.6031Z" fill="#333333"/>
<path d="M-294.312 79.8045C-294.312 82.1243 -292.434 84.0048 -290.118 84.0048C-287.802 84.0048 -285.924 82.1243 -285.924 79.8045C-285.924 77.4848 -287.802 75.6043 -290.118 75.6043C-292.434 75.6043 -294.312 77.4848 -294.312 79.8045Z" fill="#333333"/>
<path d="M-243.982 79.8045C-243.982 82.1243 -242.104 84.0048 -239.787 84.0048C-237.471 84.0048 -235.593 82.1243 -235.593 79.8045C-235.593 77.4848 -237.471 75.6043 -239.787 75.6043C-242.104 75.6043 -243.982 77.4848 -243.982 79.8045Z" fill="#333333"/>
<path d="M-193.651 79.8045C-193.651 82.1243 -191.773 84.0048 -189.457 84.0048C-187.14 84.0048 -185.263 82.1243 -185.263 79.8045C-185.263 77.4848 -187.14 75.6043 -189.457 75.6043C-191.773 75.6043 -193.651 77.4848 -193.651 79.8045Z" fill="#333333"/>
<path d="M-143.32 79.8045C-143.32 82.1243 -141.443 84.0048 -139.126 84.0048C-136.81 84.0048 -134.932 82.1243 -134.932 79.8045C-134.932 77.4848 -136.81 75.6043 -139.126 75.6043C-141.443 75.6043 -143.32 77.4848 -143.32 79.8045Z" fill="#333333"/>
<path d="M-92.9898 79.8045C-92.9898 82.1243 -91.112 84.0048 -88.7956 84.0048C-86.4792 84.0048 -84.6014 82.1243 -84.6014 79.8045C-84.6014 77.4848 -86.4792 75.6043 -88.7956 75.6043C-91.112 75.6043 -92.9898 77.4848 -92.9898 79.8045Z" fill="#333333"/>
<path d="M-319.478 105.006C-319.478 107.326 -317.6 109.206 -315.283 109.206C-312.967 109.206 -311.089 107.326 -311.089 105.006C-311.089 102.686 -312.967 100.806 -315.283 100.806C-317.6 100.806 -319.478 102.686 -319.478 105.006Z" fill="#333333"/>
<path d="M-269.147 105.006C-269.147 107.326 -267.269 109.206 -264.953 109.206C-262.636 109.206 -260.759 107.326 -260.759 105.006C-260.759 102.686 -262.636 100.806 -264.953 100.806C-267.269 100.806 -269.147 102.686 -269.147 105.006Z" fill="#333333"/>
<path d="M-218.816 105.006C-218.816 107.326 -216.939 109.206 -214.622 109.206C-212.306 109.206 -210.428 107.326 -210.428 105.006C-210.428 102.686 -212.306 100.806 -214.622 100.806C-216.939 100.806 -218.816 102.686 -218.816 105.006Z" fill="#333333"/>
<path d="M-168.486 105.006C-168.486 107.326 -166.608 109.206 -164.292 109.206C-161.975 109.206 -160.097 107.326 -160.097 105.006C-160.097 102.686 -161.975 100.806 -164.292 100.806C-166.608 100.806 -168.486 102.686 -168.486 105.006Z" fill="#333333"/>
<path d="M-118.155 105.006C-118.155 107.326 -116.277 109.206 -113.961 109.206C-111.645 109.206 -109.767 107.326 -109.767 105.006C-109.767 102.686 -111.645 100.806 -113.961 100.806C-116.277 100.806 -118.155 102.686 -118.155 105.006Z" fill="#333333"/>
<path d="M-294.312 130.207C-294.312 132.527 -292.434 134.408 -290.118 134.408C-287.802 134.408 -285.924 132.527 -285.924 130.207C-285.924 127.888 -287.802 126.007 -290.118 126.007C-292.434 126.007 -294.312 127.888 -294.312 130.207Z" fill="#333333"/>
<path d="M-243.982 130.207C-243.982 132.527 -242.104 134.408 -239.787 134.408C-237.471 134.408 -235.593 132.527 -235.593 130.207C-235.593 127.888 -237.471 126.007 -239.787 126.007C-242.104 126.007 -243.982 127.888 -243.982 130.207Z" fill="#333333"/>
<path d="M-193.651 130.207C-193.651 132.527 -191.773 134.408 -189.457 134.408C-187.14 134.408 -185.263 132.527 -185.263 130.207C-185.263 127.888 -187.14 126.007 -189.457 126.007C-191.773 126.007 -193.651 127.888 -193.651 130.207Z" fill="#333333"/>
<path d="M-143.32 130.207C-143.32 132.527 -141.443 134.408 -139.126 134.408C-136.81 134.408 -134.932 132.527 -134.932 130.207C-134.932 127.888 -136.81 126.007 -139.126 126.007C-141.443 126.007 -143.32 127.888 -143.32 130.207Z" fill="#333333"/>
<path d="M-92.9898 130.207C-92.9898 132.527 -91.112 134.408 -88.7956 134.408C-86.4792 134.408 -84.6014 132.527 -84.6014 130.207C-84.6014 127.888 -86.4792 126.007 -88.7956 126.007C-91.112 126.007 -92.9898 127.888 -92.9898 130.207Z" fill="#333333"/>
<path d="M-319.478 155.409C-319.478 157.729 -317.6 159.609 -315.283 159.609C-312.967 159.609 -311.089 157.729 -311.089 155.409C-311.089 153.089 -312.967 151.209 -315.283 151.209C-317.6 151.209 -319.478 153.089 -319.478 155.409Z" fill="#333333"/>
<path d="M-269.147 155.409C-269.147 157.729 -267.269 159.609 -264.953 159.609C-262.636 159.609 -260.759 157.729 -260.759 155.409C-260.759 153.089 -262.636 151.209 -264.953 151.209C-267.269 151.209 -269.147 153.089 -269.147 155.409Z" fill="#333333"/>
<path d="M-218.816 155.409C-218.816 157.729 -216.939 159.609 -214.622 159.609C-212.306 159.609 -210.428 157.729 -210.428 155.409C-210.428 153.089 -212.306 151.209 -214.622 151.209C-216.939 151.209 -218.816 153.089 -218.816 155.409Z" fill="#333333"/>
<path d="M-168.486 155.409C-168.486 157.729 -166.608 159.609 -164.292 159.609C-161.975 159.609 -160.097 157.729 -160.097 155.409C-160.097 153.089 -161.975 151.209 -164.292 151.209C-166.608 151.209 -168.486 153.089 -168.486 155.409Z" fill="#333333"/>
<path d="M-118.155 155.409C-118.155 157.729 -116.277 159.609 -113.961 159.609C-111.645 159.609 -109.767 157.729 -109.767 155.409C-109.767 153.089 -111.645 151.209 -113.961 151.209C-116.277 151.209 -118.155 153.089 -118.155 155.409Z" fill="#333333"/>
<path d="M-294.312 180.61C-294.312 182.93 -292.434 184.81 -290.118 184.81C-287.802 184.81 -285.924 182.93 -285.924 180.61C-285.924 178.291 -287.802 176.41 -290.118 176.41C-292.434 176.41 -294.312 178.291 -294.312 180.61Z" fill="#333333"/>
<path d="M-243.982 180.61C-243.982 182.93 -242.104 184.81 -239.787 184.81C-237.471 184.81 -235.593 182.93 -235.593 180.61C-235.593 178.291 -237.471 176.41 -239.787 176.41C-242.104 176.41 -243.982 178.291 -243.982 180.61Z" fill="#333333"/>
<path d="M-193.651 180.61C-193.651 182.93 -191.773 184.81 -189.457 184.81C-187.14 184.81 -185.263 182.93 -185.263 180.61C-185.263 178.291 -187.14 176.41 -189.457 176.41C-191.773 176.41 -193.651 178.291 -193.651 180.61Z" fill="#333333"/>
<path d="M-143.32 180.61C-143.32 182.93 -141.443 184.81 -139.126 184.81C-136.81 184.81 -134.932 182.93 -134.932 180.61C-134.932 178.291 -136.81 176.41 -139.126 176.41C-141.443 176.41 -143.32 178.291 -143.32 180.61Z" fill="#333333"/>
<path d="M-92.9898 180.61C-92.9898 182.93 -91.112 184.81 -88.7956 184.81C-86.4792 184.81 -84.6014 182.93 -84.6014 180.61C-84.6014 178.291 -86.4792 176.41 -88.7956 176.41C-91.112 176.41 -92.9898 178.291 -92.9898 180.61Z" fill="#333333"/>
<path d="M-319.478 205.812C-319.478 208.131 -317.6 210.012 -315.283 210.012C-312.967 210.012 -311.089 208.131 -311.089 205.812C-311.089 203.492 -312.967 201.611 -315.283 201.611C-317.6 201.611 -319.478 203.492 -319.478 205.812Z" fill="#333333"/>
<path d="M-269.147 205.812C-269.147 208.131 -267.269 210.012 -264.953 210.012C-262.636 210.012 -260.759 208.131 -260.759 205.812C-260.759 203.492 -262.636 201.611 -264.953 201.611C-267.269 201.611 -269.147 203.492 -269.147 205.812Z" fill="#333333"/>
<path d="M-218.816 205.812C-218.816 208.131 -216.939 210.012 -214.622 210.012C-212.306 210.012 -210.428 208.131 -210.428 205.812C-210.428 203.492 -212.306 201.611 -214.622 201.611C-216.939 201.611 -218.816 203.492 -218.816 205.812Z" fill="#333333"/>
<path d="M-168.486 205.812C-168.486 208.131 -166.608 210.012 -164.292 210.012C-161.975 210.012 -160.097 208.131 -160.097 205.812C-160.097 203.492 -161.975 201.611 -164.292 201.611C-166.608 201.611 -168.486 203.492 -168.486 205.812Z" fill="#333333"/>
<path d="M-118.155 205.812C-118.155 208.131 -116.277 210.012 -113.961 210.012C-111.645 210.012 -109.767 208.131 -109.767 205.812C-109.767 203.492 -111.645 201.611 -113.961 201.611C-116.277 201.611 -118.155 203.492 -118.155 205.812Z" fill="#333333"/>
<path d="M-294.312 231.013C-294.312 233.333 -292.434 235.213 -290.118 235.213C-287.802 235.213 -285.924 233.333 -285.924 231.013C-285.924 228.693 -287.802 226.813 -290.118 226.813C-292.434 226.813 -294.312 228.693 -294.312 231.013Z" fill="#333333"/>
<path d="M-243.982 231.013C-243.982 233.333 -242.104 235.213 -239.787 235.213C-237.471 235.213 -235.593 233.333 -235.593 231.013C-235.593 228.693 -237.471 226.813 -239.787 226.813C-242.104 226.813 -243.982 228.693 -243.982 231.013Z" fill="#333333"/>
<path d="M-193.651 231.013C-193.651 233.333 -191.773 235.213 -189.457 235.213C-187.14 235.213 -185.263 233.333 -185.263 231.013C-185.263 228.693 -187.14 226.813 -189.457 226.813C-191.773 226.813 -193.651 228.693 -193.651 231.013Z" fill="#333333"/>
<path d="M-143.32 231.013C-143.32 233.333 -141.443 235.213 -139.126 235.213C-136.81 235.213 -134.932 233.333 -134.932 231.013C-134.932 228.693 -136.81 226.813 -139.126 226.813C-141.443 226.813 -143.32 228.693 -143.32 231.013Z" fill="#333333"/>
<path d="M-92.9898 231.013C-92.9898 233.333 -91.112 235.213 -88.7956 235.213C-86.4792 235.213 -84.6014 233.333 -84.6014 231.013C-84.6014 228.693 -86.4792 226.813 -88.7956 226.813C-91.112 226.813 -92.9898 228.693 -92.9898 231.013Z" fill="#333333"/>
<path d="M-319.478 256.215C-319.478 258.534 -317.6 260.415 -315.283 260.415C-312.967 260.415 -311.089 258.534 -311.089 256.215C-311.089 253.895 -312.967 252.014 -315.283 252.014C-317.6 252.014 -319.478 253.895 -319.478 256.215Z" fill="#333333"/>
<path d="M-269.147 256.215C-269.147 258.534 -267.269 260.415 -264.953 260.415C-262.636 260.415 -260.759 258.534 -260.759 256.215C-260.759 253.895 -262.636 252.014 -264.953 252.014C-267.269 252.014 -269.147 253.895 -269.147 256.215Z" fill="#333333"/>
<path d="M-218.816 256.215C-218.816 258.534 -216.939 260.415 -214.622 260.415C-212.306 260.415 -210.428 258.534 -210.428 256.215C-210.428 253.895 -212.306 252.014 -214.622 252.014C-216.939 252.014 -218.816 253.895 -218.816 256.215Z" fill="#333333"/>
<path d="M-168.486 256.215C-168.486 258.534 -166.608 260.415 -164.292 260.415C-161.975 260.415 -160.097 258.534 -160.097 256.215C-160.097 253.895 -161.975 252.014 -164.292 252.014C-166.608 252.014 -168.486 253.895 -168.486 256.215Z" fill="#333333"/>
<path d="M-118.155 256.215C-118.155 258.534 -116.277 260.415 -113.961 260.415C-111.645 260.415 -109.767 258.534 -109.767 256.215C-109.767 253.895 -111.645 252.014 -113.961 252.014C-116.277 252.014 -118.155 253.895 -118.155 256.215Z" fill="#333333"/>
<path d="M-294.312 281.416C-294.312 283.736 -292.434 285.616 -290.118 285.616C-287.802 285.616 -285.924 283.736 -285.924 281.416C-285.924 279.096 -287.802 277.216 -290.118 277.216C-292.434 277.216 -294.312 279.096 -294.312 281.416Z" fill="#333333"/>
<path d="M-243.982 281.416C-243.982 283.736 -242.104 285.616 -239.787 285.616C-237.471 285.616 -235.593 283.736 -235.593 281.416C-235.593 279.096 -237.471 277.216 -239.787 277.216C-242.104 277.216 -243.982 279.096 -243.982 281.416Z" fill="#333333"/>
<path d="M-193.651 281.416C-193.651 283.736 -191.773 285.616 -189.457 285.616C-187.14 285.616 -185.263 283.736 -185.263 281.416C-185.263 279.096 -187.14 277.216 -189.457 277.216C-191.773 277.216 -193.651 279.096 -193.651 281.416Z" fill="#333333"/>
<path d="M-143.32 281.416C-143.32 283.736 -141.443 285.616 -139.126 285.616C-136.81 285.616 -134.932 283.736 -134.932 281.416C-134.932 279.096 -136.81 277.216 -139.126 277.216C-141.443 277.216 -143.32 279.096 -143.32 281.416Z" fill="#333333"/>
<path d="M-92.9898 281.416C-92.9898 283.736 -91.112 285.616 -88.7956 285.616C-86.4792 285.616 -84.6014 283.736 -84.6014 281.416C-84.6014 279.096 -86.4792 277.216 -88.7956 277.216C-91.112 277.216 -92.9898 279.096 -92.9898 281.416Z" fill="#333333"/>
<path d="M-319.478 306.617C-319.478 308.937 -317.6 310.818 -315.283 310.818C-312.967 310.818 -311.089 308.937 -311.089 306.617C-311.089 304.298 -312.967 302.417 -315.283 302.417C-317.6 302.417 -319.478 304.298 -319.478 306.617Z" fill="#333333"/>
<path d="M-269.147 306.617C-269.147 308.937 -267.269 310.818 -264.953 310.818C-262.636 310.818 -260.759 308.937 -260.759 306.617C-260.759 304.298 -262.636 302.417 -264.953 302.417C-267.269 302.417 -269.147 304.298 -269.147 306.617Z" fill="#333333"/>
<path d="M-218.816 306.617C-218.816 308.937 -216.939 310.818 -214.622 310.818C-212.306 310.818 -210.428 308.937 -210.428 306.617C-210.428 304.298 -212.306 302.417 -214.622 302.417C-216.939 302.417 -218.816 304.298 -218.816 306.617Z" fill="#333333"/>
<path d="M-168.486 306.617C-168.486 308.937 -166.608 310.818 -164.292 310.818C-161.975 310.818 -160.097 308.937 -160.097 306.617C-160.097 304.298 -161.975 302.417 -164.292 302.417C-166.608 302.417 -168.486 304.298 -168.486 306.617Z" fill="#333333"/>
<path d="M-118.155 306.617C-118.155 308.937 -116.277 310.818 -113.961 310.818C-111.645 310.818 -109.767 308.937 -109.767 306.617C-109.767 304.298 -111.645 302.417 -113.961 302.417C-116.277 302.417 -118.155 304.298 -118.155 306.617Z" fill="#333333"/>
<path d="M-68.0415 4.20024C-68.0415 6.51997 -66.1637 8.40048 -63.8473 8.40048C-61.5309 8.40048 -59.653 6.51997 -59.653 4.20024C-59.653 1.88051 -61.5309 0 -63.8473 0C-66.1637 0 -68.0415 1.88051 -68.0415 4.20024Z" fill="#333333"/>
<path d="M-17.7109 4.20024C-17.7109 6.51997 -15.8331 8.40048 -13.5166 8.40048C-11.2002 8.40048 -9.32243 6.51997 -9.32243 4.20024C-9.32243 1.88051 -11.2002 0 -13.5166 0C-15.8331 0 -17.7109 1.88051 -17.7109 4.20024Z" fill="#333333"/>
<path d="M32.6197 4.20024C32.6197 6.51997 34.4976 8.40048 36.814 8.40048C39.1304 8.40048 41.0082 6.51997 41.0082 4.20024C41.0082 1.88051 39.1304 0 36.814 0C34.4976 0 32.6197 1.88051 32.6197 4.20024Z" fill="#333333"/>
<path d="M82.9504 4.20024C82.9504 6.51997 84.8282 8.40048 87.1446 8.40048C89.461 8.40048 91.3388 6.51997 91.3388 4.20024C91.3388 1.88051 89.461 0 87.1446 0C84.8282 0 82.9504 1.88051 82.9504 4.20024Z" fill="#333333"/>
<path d="M133.281 4.20024C133.281 6.51997 135.159 8.40048 137.475 8.40048C139.792 8.40048 141.669 6.51997 141.669 4.20024C141.669 1.88051 139.792 0 137.475 0C135.159 0 133.281 1.88051 133.281 4.20024Z" fill="#333333"/>
<path d="M183.612 4.20024C183.612 6.51997 185.489 8.40048 187.806 8.40048C190.122 8.40048 192 6.51997 192 4.20024C192 1.88051 190.122 0 187.806 0C185.489 0 183.612 1.88051 183.612 4.20024Z" fill="#333333"/>
<path d="M-42.8762 29.4017C-42.8762 31.7214 -40.9984 33.6019 -38.6819 33.6019C-36.3655 33.6019 -34.4877 31.7214 -34.4877 29.4017C-34.4877 27.0819 -36.3655 25.2014 -38.6819 25.2014C-40.9984 25.2014 -42.8762 27.0819 -42.8762 29.4017Z" fill="#333333"/>
<path d="M7.45444 29.4017C7.45444 31.7214 9.33224 33.6019 11.6487 33.6019C13.9651 33.6019 15.8429 31.7214 15.8429 29.4017C15.8429 27.0819 13.9651 25.2014 11.6487 25.2014C9.33224 25.2014 7.45444 27.0819 7.45444 29.4017Z" fill="#333333"/>
<path d="M57.785 29.4017C57.785 31.7214 59.6629 33.6019 61.9793 33.6019C64.2957 33.6019 66.1735 31.7214 66.1735 29.4017C66.1735 27.0819 64.2957 25.2014 61.9793 25.2014C59.6629 25.2014 57.785 27.0819 57.785 29.4017Z" fill="#333333"/>
<path d="M108.116 29.4017C108.116 31.7214 109.993 33.6019 112.31 33.6019C114.626 33.6019 116.504 31.7214 116.504 29.4017C116.504 27.0819 114.626 25.2014 112.31 25.2014C109.993 25.2014 108.116 27.0819 108.116 29.4017Z" fill="#333333"/>
<path d="M158.446 29.4017C158.446 31.7214 160.324 33.6019 162.64 33.6019C164.957 33.6019 166.835 31.7214 166.835 29.4017C166.835 27.0819 164.957 25.2014 162.64 25.2014C160.324 25.2014 158.446 27.0819 158.446 29.4017Z" fill="#333333"/>
<path d="M-68.0415 54.6031C-68.0415 56.9228 -66.1637 58.8033 -63.8473 58.8033C-61.5309 58.8033 -59.653 56.9228 -59.653 54.6031C-59.653 52.2834 -61.5309 50.4029 -63.8473 50.4029C-66.1637 50.4029 -68.0415 52.2834 -68.0415 54.6031Z" fill="#333333"/>
<path d="M-17.7109 54.6031C-17.7109 56.9228 -15.8331 58.8033 -13.5166 58.8033C-11.2002 58.8033 -9.32243 56.9228 -9.32243 54.6031C-9.32243 52.2834 -11.2002 50.4029 -13.5166 50.4029C-15.8331 50.4029 -17.7109 52.2834 -17.7109 54.6031Z" fill="#333333"/>
<path d="M32.6197 54.6031C32.6197 56.9228 34.4976 58.8033 36.814 58.8033C39.1304 58.8033 41.0082 56.9228 41.0082 54.6031C41.0082 52.2834 39.1304 50.4029 36.814 50.4029C34.4976 50.4029 32.6197 52.2834 32.6197 54.6031Z" fill="#333333"/>
<path d="M82.9504 54.6031C82.9504 56.9228 84.8282 58.8033 87.1446 58.8033C89.461 58.8033 91.3388 56.9228 91.3388 54.6031C91.3388 52.2834 89.461 50.4029 87.1446 50.4029C84.8282 50.4029 82.9504 52.2834 82.9504 54.6031Z" fill="#333333"/>
<path d="M133.281 54.6031C133.281 56.9228 135.159 58.8033 137.475 58.8033C139.792 58.8033 141.669 56.9228 141.669 54.6031C141.669 52.2834 139.792 50.4029 137.475 50.4029C135.159 50.4029 133.281 52.2834 133.281 54.6031Z" fill="#333333"/>
<path d="M183.612 54.6031C183.612 56.9228 185.489 58.8033 187.806 58.8033C190.122 58.8033 192 56.9228 192 54.6031C192 52.2834 190.122 50.4029 187.806 50.4029C185.489 50.4029 183.612 52.2834 183.612 54.6031Z" fill="#333333"/>
<path d="M-42.8762 79.8045C-42.8762 82.1243 -40.9984 84.0048 -38.6819 84.0048C-36.3655 84.0048 -34.4877 82.1243 -34.4877 79.8045C-34.4877 77.4848 -36.3655 75.6043 -38.6819 75.6043C-40.9984 75.6043 -42.8762 77.4848 -42.8762 79.8045Z" fill="#333333"/>
<path d="M7.45444 79.8045C7.45444 82.1243 9.33224 84.0048 11.6487 84.0048C13.9651 84.0048 15.8429 82.1243 15.8429 79.8045C15.8429 77.4848 13.9651 75.6043 11.6487 75.6043C9.33224 75.6043 7.45444 77.4848 7.45444 79.8045Z" fill="#333333"/>
<path d="M57.785 79.8045C57.785 82.1243 59.6629 84.0048 61.9793 84.0048C64.2957 84.0048 66.1735 82.1243 66.1735 79.8045C66.1735 77.4848 64.2957 75.6043 61.9793 75.6043C59.6629 75.6043 57.785 77.4848 57.785 79.8045Z" fill="#333333"/>
<path d="M108.116 79.8045C108.116 82.1243 109.993 84.0048 112.31 84.0048C114.626 84.0048 116.504 82.1243 116.504 79.8045C116.504 77.4848 114.626 75.6043 112.31 75.6043C109.993 75.6043 108.116 77.4848 108.116 79.8045Z" fill="#333333"/>
<path d="M158.446 79.8045C158.446 82.1243 160.324 84.0048 162.64 84.0048C164.957 84.0048 166.835 82.1243 166.835 79.8045C166.835 77.4848 164.957 75.6043 162.64 75.6043C160.324 75.6043 158.446 77.4848 158.446 79.8045Z" fill="#333333"/>
<path d="M-68.0415 105.006C-68.0415 107.326 -66.1637 109.206 -63.8473 109.206C-61.5309 109.206 -59.653 107.326 -59.653 105.006C-59.653 102.686 -61.5309 100.806 -63.8473 100.806C-66.1637 100.806 -68.0415 102.686 -68.0415 105.006Z" fill="#333333"/>
<path d="M-17.7109 105.006C-17.7109 107.326 -15.8331 109.206 -13.5166 109.206C-11.2002 109.206 -9.32243 107.326 -9.32243 105.006C-9.32243 102.686 -11.2002 100.806 -13.5166 100.806C-15.8331 100.806 -17.7109 102.686 -17.7109 105.006Z" fill="#333333"/>
<path d="M32.6197 105.006C32.6197 107.326 34.4976 109.206 36.814 109.206C39.1304 109.206 41.0082 107.326 41.0082 105.006C41.0082 102.686 39.1304 100.806 36.814 100.806C34.4976 100.806 32.6197 102.686 32.6197 105.006Z" fill="#333333"/>
<path d="M82.9504 105.006C82.9504 107.326 84.8282 109.206 87.1446 109.206C89.461 109.206 91.3388 107.326 91.3388 105.006C91.3388 102.686 89.461 100.806 87.1446 100.806C84.8282 100.806 82.9504 102.686 82.9504 105.006Z" fill="#333333"/>
<path d="M133.281 105.006C133.281 107.326 135.159 109.206 137.475 109.206C139.792 109.206 141.669 107.326 141.669 105.006C141.669 102.686 139.792 100.806 137.475 100.806C135.159 100.806 133.281 102.686 133.281 105.006Z" fill="#333333"/>
<path d="M183.612 105.006C183.612 107.326 185.489 109.206 187.806 109.206C190.122 109.206 192 107.326 192 105.006C192 102.686 190.122 100.806 187.806 100.806C185.489 100.806 183.612 102.686 183.612 105.006Z" fill="#333333"/>
<path d="M-42.8762 130.207C-42.8762 132.527 -40.9984 134.408 -38.6819 134.408C-36.3655 134.408 -34.4877 132.527 -34.4877 130.207C-34.4877 127.888 -36.3655 126.007 -38.6819 126.007C-40.9984 126.007 -42.8762 127.888 -42.8762 130.207Z" fill="#333333"/>
<path d="M7.45444 130.207C7.45444 132.527 9.33224 134.408 11.6487 134.408C13.9651 134.408 15.8429 132.527 15.8429 130.207C15.8429 127.888 13.9651 126.007 11.6487 126.007C9.33224 126.007 7.45444 127.888 7.45444 130.207Z" fill="#333333"/>
<path d="M57.785 130.207C57.785 132.527 59.6629 134.408 61.9793 134.408C64.2957 134.408 66.1735 132.527 66.1735 130.207C66.1735 127.888 64.2957 126.007 61.9793 126.007C59.6629 126.007 57.785 127.888 57.785 130.207Z" fill="#333333"/>
<path d="M108.116 130.207C108.116 132.527 109.993 134.408 112.31 134.408C114.626 134.408 116.504 132.527 116.504 130.207C116.504 127.888 114.626 126.007 112.31 126.007C109.993 126.007 108.116 127.888 108.116 130.207Z" fill="#333333"/>
<path d="M158.446 130.207C158.446 132.527 160.324 134.408 162.64 134.408C164.957 134.408 166.835 132.527 166.835 130.207C166.835 127.888 164.957 126.007 162.64 126.007C160.324 126.007 158.446 127.888 158.446 130.207Z" fill="#333333"/>
<path d="M-68.0415 155.409C-68.0415 157.729 -66.1637 159.609 -63.8473 159.609C-61.5309 159.609 -59.653 157.729 -59.653 155.409C-59.653 153.089 -61.5309 151.209 -63.8473 151.209C-66.1637 151.209 -68.0415 153.089 -68.0415 155.409Z" fill="#333333"/>
<path d="M-17.7109 155.409C-17.7109 157.729 -15.8331 159.609 -13.5166 159.609C-11.2002 159.609 -9.32243 157.729 -9.32243 155.409C-9.32243 153.089 -11.2002 151.209 -13.5166 151.209C-15.8331 151.209 -17.7109 153.089 -17.7109 155.409Z" fill="#333333"/>
<path d="M32.6197 155.409C32.6197 157.729 34.4976 159.609 36.814 159.609C39.1304 159.609 41.0082 157.729 41.0082 155.409C41.0082 153.089 39.1304 151.209 36.814 151.209C34.4976 151.209 32.6197 153.089 32.6197 155.409Z" fill="#333333"/>
<path d="M82.9504 155.409C82.9504 157.729 84.8282 159.609 87.1446 159.609C89.461 159.609 91.3388 157.729 91.3388 155.409C91.3388 153.089 89.461 151.209 87.1446 151.209C84.8282 151.209 82.9504 153.089 82.9504 155.409Z" fill="#333333"/>
<path d="M133.281 155.409C133.281 157.729 135.159 159.609 137.475 159.609C139.792 159.609 141.669 157.729 141.669 155.409C141.669 153.089 139.792 151.209 137.475 151.209C135.159 151.209 133.281 153.089 133.281 155.409Z" fill="#333333"/>
<path d="M183.612 155.409C183.612 157.729 185.489 159.609 187.806 159.609C190.122 159.609 192 157.729 192 155.409C192 153.089 190.122 151.209 187.806 151.209C185.489 151.209 183.612 153.089 183.612 155.409Z" fill="#333333"/>
<path d="M-42.8762 180.61C-42.8762 182.93 -40.9984 184.81 -38.6819 184.81C-36.3655 184.81 -34.4877 182.93 -34.4877 180.61C-34.4877 178.291 -36.3655 176.41 -38.6819 176.41C-40.9984 176.41 -42.8762 178.291 -42.8762 180.61Z" fill="#333333"/>
<path d="M7.45444 180.61C7.45444 182.93 9.33224 184.81 11.6487 184.81C13.9651 184.81 15.8429 182.93 15.8429 180.61C15.8429 178.291 13.9651 176.41 11.6487 176.41C9.33224 176.41 7.45444 178.291 7.45444 180.61Z" fill="#333333"/>
<path d="M57.785 180.61C57.785 182.93 59.6629 184.81 61.9793 184.81C64.2957 184.81 66.1735 182.93 66.1735 180.61C66.1735 178.291 64.2957 176.41 61.9793 176.41C59.6629 176.41 57.785 178.291 57.785 180.61Z" fill="#333333"/>
<path d="M108.116 180.61C108.116 182.93 109.993 184.81 112.31 184.81C114.626 184.81 116.504 182.93 116.504 180.61C116.504 178.291 114.626 176.41 112.31 176.41C109.993 176.41 108.116 178.291 108.116 180.61Z" fill="#333333"/>
<path d="M158.446 180.61C158.446 182.93 160.324 184.81 162.64 184.81C164.957 184.81 166.835 182.93 166.835 180.61C166.835 178.291 164.957 176.41 162.64 176.41C160.324 176.41 158.446 178.291 158.446 180.61Z" fill="#333333"/>
<path d="M-68.0415 205.812C-68.0415 208.131 -66.1637 210.012 -63.8473 210.012C-61.5309 210.012 -59.653 208.131 -59.653 205.812C-59.653 203.492 -61.5309 201.611 -63.8473 201.611C-66.1637 201.611 -68.0415 203.492 -68.0415 205.812Z" fill="#333333"/>
<path d="M-17.7109 205.812C-17.7109 208.131 -15.8331 210.012 -13.5166 210.012C-11.2002 210.012 -9.32243 208.131 -9.32243 205.812C-9.32243 203.492 -11.2002 201.611 -13.5166 201.611C-15.8331 201.611 -17.7109 203.492 -17.7109 205.812Z" fill="#333333"/>
<path d="M32.6197 205.812C32.6197 208.131 34.4976 210.012 36.814 210.012C39.1304 210.012 41.0082 208.131 41.0082 205.812C41.0082 203.492 39.1304 201.611 36.814 201.611C34.4976 201.611 32.6197 203.492 32.6197 205.812Z" fill="#333333"/>
<path d="M82.9504 205.812C82.9504 208.131 84.8282 210.012 87.1446 210.012C89.461 210.012 91.3388 208.131 91.3388 205.812C91.3388 203.492 89.461 201.611 87.1446 201.611C84.8282 201.611 82.9504 203.492 82.9504 205.812Z" fill="#333333"/>
<path d="M133.281 205.812C133.281 208.131 135.159 210.012 137.475 210.012C139.792 210.012 141.669 208.131 141.669 205.812C141.669 203.492 139.792 201.611 137.475 201.611C135.159 201.611 133.281 203.492 133.281 205.812Z" fill="#333333"/>
<path d="M183.612 205.812C183.612 208.131 185.489 210.012 187.806 210.012C190.122 210.012 192 208.131 192 205.812C192 203.492 190.122 201.611 187.806 201.611C185.489 201.611 183.612 203.492 183.612 205.812Z" fill="#333333"/>
<path d="M-42.8762 231.013C-42.8762 233.333 -40.9984 235.213 -38.6819 235.213C-36.3655 235.213 -34.4877 233.333 -34.4877 231.013C-34.4877 228.693 -36.3655 226.813 -38.6819 226.813C-40.9984 226.813 -42.8762 228.693 -42.8762 231.013Z" fill="#333333"/>
<path d="M7.45444 231.013C7.45444 233.333 9.33224 235.213 11.6487 235.213C13.9651 235.213 15.8429 233.333 15.8429 231.013C15.8429 228.693 13.9651 226.813 11.6487 226.813C9.33224 226.813 7.45444 228.693 7.45444 231.013Z" fill="#333333"/>
<path d="M57.785 231.013C57.785 233.333 59.6629 235.213 61.9793 235.213C64.2957 235.213 66.1735 233.333 66.1735 231.013C66.1735 228.693 64.2957 226.813 61.9793 226.813C59.6629 226.813 57.785 228.693 57.785 231.013Z" fill="#333333"/>
<path d="M108.116 231.013C108.116 233.333 109.993 235.213 112.31 235.213C114.626 235.213 116.504 233.333 116.504 231.013C116.504 228.693 114.626 226.813 112.31 226.813C109.993 226.813 108.116 228.693 108.116 231.013Z" fill="#333333"/>
<path d="M158.446 231.013C158.446 233.333 160.324 235.213 162.64 235.213C164.957 235.213 166.835 233.333 166.835 231.013C166.835 228.693 164.957 226.813 162.64 226.813C160.324 226.813 158.446 228.693 158.446 231.013Z" fill="#333333"/>
<path d="M-68.0415 256.215C-68.0415 258.534 -66.1637 260.415 -63.8473 260.415C-61.5309 260.415 -59.653 258.534 -59.653 256.215C-59.653 253.895 -61.5309 252.014 -63.8473 252.014C-66.1637 252.014 -68.0415 253.895 -68.0415 256.215Z" fill="#333333"/>
<path d="M-17.7109 256.215C-17.7109 258.534 -15.8331 260.415 -13.5166 260.415C-11.2002 260.415 -9.32243 258.534 -9.32243 256.215C-9.32243 253.895 -11.2002 252.014 -13.5166 252.014C-15.8331 252.014 -17.7109 253.895 -17.7109 256.215Z" fill="#333333"/>
<path d="M32.6197 256.215C32.6197 258.534 34.4976 260.415 36.814 260.415C39.1304 260.415 41.0082 258.534 41.0082 256.215C41.0082 253.895 39.1304 252.014 36.814 252.014C34.4976 252.014 32.6197 253.895 32.6197 256.215Z" fill="#333333"/>
<path d="M82.9504 256.215C82.9504 258.534 84.8282 260.415 87.1446 260.415C89.461 260.415 91.3388 258.534 91.3388 256.215C91.3388 253.895 89.461 252.014 87.1446 252.014C84.8282 252.014 82.9504 253.895 82.9504 256.215Z" fill="#333333"/>
<path d="M133.281 256.215C133.281 258.534 135.159 260.415 137.475 260.415C139.792 260.415 141.669 258.534 141.669 256.215C141.669 253.895 139.792 252.014 137.475 252.014C135.159 252.014 133.281 253.895 133.281 256.215Z" fill="#333333"/>
<path d="M183.612 256.215C183.612 258.534 185.489 260.415 187.806 260.415C190.122 260.415 192 258.534 192 256.215C192 253.895 190.122 252.014 187.806 252.014C185.489 252.014 183.612 253.895 183.612 256.215Z" fill="#333333"/>
<path d="M-42.8762 281.416C-42.8762 283.736 -40.9984 285.616 -38.6819 285.616C-36.3655 285.616 -34.4877 283.736 -34.4877 281.416C-34.4877 279.096 -36.3655 277.216 -38.6819 277.216C-40.9984 277.216 -42.8762 279.096 -42.8762 281.416Z" fill="#333333"/>
<path d="M7.45444 281.416C7.45444 283.736 9.33224 285.616 11.6487 285.616C13.9651 285.616 15.8429 283.736 15.8429 281.416C15.8429 279.096 13.9651 277.216 11.6487 277.216C9.33224 277.216 7.45444 279.096 7.45444 281.416Z" fill="#333333"/>
<path d="M57.785 281.416C57.785 283.736 59.6629 285.616 61.9793 285.616C64.2957 285.616 66.1735 283.736 66.1735 281.416C66.1735 279.096 64.2957 277.216 61.9793 277.216C59.6629 277.216 57.785 279.096 57.785 281.416Z" fill="#333333"/>
<path d="M108.116 281.416C108.116 283.736 109.993 285.616 112.31 285.616C114.626 285.616 116.504 283.736 116.504 281.416C116.504 279.096 114.626 277.216 112.31 277.216C109.993 277.216 108.116 279.096 108.116 281.416Z" fill="#333333"/>
<path d="M158.446 281.416C158.446 283.736 160.324 285.616 162.64 285.616C164.957 285.616 166.835 283.736 166.835 281.416C166.835 279.096 164.957 277.216 162.64 277.216C160.324 277.216 158.446 279.096 158.446 281.416Z" fill="#333333"/>
<path d="M-68.0415 306.617C-68.0415 308.937 -66.1637 310.818 -63.8473 310.818C-61.5309 310.818 -59.653 308.937 -59.653 306.617C-59.653 304.298 -61.5309 302.417 -63.8473 302.417C-66.1637 302.417 -68.0415 304.298 -68.0415 306.617Z" fill="#333333"/>
<path d="M-17.7109 306.617C-17.7109 308.937 -15.8331 310.818 -13.5166 310.818C-11.2002 310.818 -9.32243 308.937 -9.32243 306.617C-9.32243 304.298 -11.2002 302.417 -13.5166 302.417C-15.8331 302.417 -17.7109 304.298 -17.7109 306.617Z" fill="#333333"/>
<path d="M32.6197 306.617C32.6197 308.937 34.4976 310.818 36.814 310.818C39.1304 310.818 41.0082 308.937 41.0082 306.617C41.0082 304.298 39.1304 302.417 36.814 302.417C34.4976 302.417 32.6197 304.298 32.6197 306.617Z" fill="#333333"/>
<path d="M82.9504 306.617C82.9504 308.937 84.8282 310.818 87.1446 310.818C89.461 310.818 91.3388 308.937 91.3388 306.617C91.3388 304.298 89.461 302.417 87.1446 302.417C84.8282 302.417 82.9504 304.298 82.9504 306.617Z" fill="#333333"/>
<path d="M133.281 306.617C133.281 308.937 135.159 310.818 137.475 310.818C139.792 310.818 141.669 308.937 141.669 306.617C141.669 304.298 139.792 302.417 137.475 302.417C135.159 302.417 133.281 304.298 133.281 306.617Z" fill="#333333"/>
<path d="M183.612 306.617C183.612 308.937 185.489 310.818 187.806 310.818C190.122 310.818 192 308.937 192 306.617C192 304.298 190.122 302.417 187.806 302.417C185.489 302.417 183.612 304.298 183.612 306.617Z" fill="#333333"/>
<path d="M-571.348 4.20024C-571.348 6.51997 -569.47 8.40048 -567.153 8.40048C-564.837 8.40048 -562.959 6.51997 -562.959 4.20024C-562.959 1.88051 -564.837 0 -567.153 0C-569.47 0 -571.348 1.88051 -571.348 4.20024Z" fill="#333333"/>
<path d="M-521.017 4.20024C-521.017 6.51997 -519.139 8.40048 -516.823 8.40048C-514.506 8.40048 -512.629 6.51997 -512.629 4.20024C-512.629 1.88051 -514.506 0 -516.823 0C-519.139 0 -521.017 1.88051 -521.017 4.20024Z" fill="#333333"/>
<path d="M-470.686 4.20024C-470.686 6.51997 -468.809 8.40048 -466.492 8.40048C-464.176 8.40048 -462.298 6.51997 -462.298 4.20024C-462.298 1.88051 -464.176 0 -466.492 0C-468.809 0 -470.686 1.88051 -470.686 4.20024Z" fill="#333333"/>
<path d="M-420.356 4.20024C-420.356 6.51997 -418.478 8.40048 -416.161 8.40048C-413.845 8.40048 -411.967 6.51997 -411.967 4.20024C-411.967 1.88051 -413.845 0 -416.161 0C-418.478 0 -420.356 1.88051 -420.356 4.20024Z" fill="#333333"/>
<path d="M-370.025 4.20024C-370.025 6.51997 -368.147 8.40048 -365.831 8.40048C-363.515 8.40048 -361.637 6.51997 -361.637 4.20024C-361.637 1.88051 -363.515 0 -365.831 0C-368.147 0 -370.025 1.88051 -370.025 4.20024Z" fill="#333333"/>
<path d="M-546.182 29.4017C-546.182 31.7214 -544.304 33.6019 -541.988 33.6019C-539.672 33.6019 -537.794 31.7214 -537.794 29.4017C-537.794 27.0819 -539.672 25.2014 -541.988 25.2014C-544.304 25.2014 -546.182 27.0819 -546.182 29.4017Z" fill="#333333"/>
<path d="M-495.852 29.4017C-495.852 31.7214 -493.974 33.6019 -491.657 33.6019C-489.341 33.6019 -487.463 31.7214 -487.463 29.4017C-487.463 27.0819 -489.341 25.2014 -491.657 25.2014C-493.974 25.2014 -495.852 27.0819 -495.852 29.4017Z" fill="#333333"/>
<path d="M-445.521 29.4017C-445.521 31.7214 -443.643 33.6019 -441.327 33.6019C-439.01 33.6019 -437.133 31.7214 -437.133 29.4017C-437.133 27.0819 -439.01 25.2014 -441.327 25.2014C-443.643 25.2014 -445.521 27.0819 -445.521 29.4017Z" fill="#333333"/>
<path d="M-395.19 29.4017C-395.19 31.7214 -393.313 33.6019 -390.996 33.6019C-388.68 33.6019 -386.802 31.7214 -386.802 29.4017C-386.802 27.0819 -388.68 25.2014 -390.996 25.2014C-393.313 25.2014 -395.19 27.0819 -395.19 29.4017Z" fill="#333333"/>
<path d="M-344.86 29.4017C-344.86 31.7214 -342.982 33.6019 -340.666 33.6019C-338.349 33.6019 -336.471 31.7214 -336.471 29.4017C-336.471 27.0819 -338.349 25.2014 -340.666 25.2014C-342.982 25.2014 -344.86 27.0819 -344.86 29.4017Z" fill="#333333"/>
<path d="M-571.348 54.6031C-571.348 56.9228 -569.47 58.8033 -567.153 58.8033C-564.837 58.8033 -562.959 56.9228 -562.959 54.6031C-562.959 52.2834 -564.837 50.4029 -567.153 50.4029C-569.47 50.4029 -571.348 52.2834 -571.348 54.6031Z" fill="#333333"/>
<path d="M-521.017 54.6031C-521.017 56.9228 -519.139 58.8033 -516.823 58.8033C-514.506 58.8033 -512.629 56.9228 -512.629 54.6031C-512.629 52.2834 -514.506 50.4029 -516.823 50.4029C-519.139 50.4029 -521.017 52.2834 -521.017 54.6031Z" fill="#333333"/>
<path d="M-470.686 54.6031C-470.686 56.9228 -468.809 58.8033 -466.492 58.8033C-464.176 58.8033 -462.298 56.9228 -462.298 54.6031C-462.298 52.2834 -464.176 50.4029 -466.492 50.4029C-468.809 50.4029 -470.686 52.2834 -470.686 54.6031Z" fill="#333333"/>
<path d="M-420.356 54.6031C-420.356 56.9228 -418.478 58.8033 -416.161 58.8033C-413.845 58.8033 -411.967 56.9228 -411.967 54.6031C-411.967 52.2834 -413.845 50.4029 -416.161 50.4029C-418.478 50.4029 -420.356 52.2834 -420.356 54.6031Z" fill="#333333"/>
<path d="M-370.025 54.6031C-370.025 56.9228 -368.147 58.8033 -365.831 58.8033C-363.515 58.8033 -361.637 56.9228 -361.637 54.6031C-361.637 52.2834 -363.515 50.4029 -365.831 50.4029C-368.147 50.4029 -370.025 52.2834 -370.025 54.6031Z" fill="#333333"/>
<path d="M-546.182 79.8045C-546.182 82.1243 -544.304 84.0048 -541.988 84.0048C-539.672 84.0048 -537.794 82.1243 -537.794 79.8045C-537.794 77.4848 -539.672 75.6043 -541.988 75.6043C-544.304 75.6043 -546.182 77.4848 -546.182 79.8045Z" fill="#333333"/>
<path d="M-495.852 79.8045C-495.852 82.1243 -493.974 84.0048 -491.657 84.0048C-489.341 84.0048 -487.463 82.1243 -487.463 79.8045C-487.463 77.4848 -489.341 75.6043 -491.657 75.6043C-493.974 75.6043 -495.852 77.4848 -495.852 79.8045Z" fill="#333333"/>
<path d="M-445.521 79.8045C-445.521 82.1243 -443.643 84.0048 -441.327 84.0048C-439.01 84.0048 -437.133 82.1243 -437.133 79.8045C-437.133 77.4848 -439.01 75.6043 -441.327 75.6043C-443.643 75.6043 -445.521 77.4848 -445.521 79.8045Z" fill="#333333"/>
<path d="M-395.19 79.8045C-395.19 82.1243 -393.313 84.0048 -390.996 84.0048C-388.68 84.0048 -386.802 82.1243 -386.802 79.8045C-386.802 77.4848 -388.68 75.6043 -390.996 75.6043C-393.313 75.6043 -395.19 77.4848 -395.19 79.8045Z" fill="#333333"/>
<path d="M-344.86 79.8045C-344.86 82.1243 -342.982 84.0048 -340.666 84.0048C-338.349 84.0048 -336.471 82.1243 -336.471 79.8045C-336.471 77.4848 -338.349 75.6043 -340.666 75.6043C-342.982 75.6043 -344.86 77.4848 -344.86 79.8045Z" fill="#333333"/>
<path d="M-571.348 105.006C-571.348 107.326 -569.47 109.206 -567.153 109.206C-564.837 109.206 -562.959 107.326 -562.959 105.006C-562.959 102.686 -564.837 100.806 -567.153 100.806C-569.47 100.806 -571.348 102.686 -571.348 105.006Z" fill="#333333"/>
<path d="M-521.017 105.006C-521.017 107.326 -519.139 109.206 -516.823 109.206C-514.506 109.206 -512.629 107.326 -512.629 105.006C-512.629 102.686 -514.506 100.806 -516.823 100.806C-519.139 100.806 -521.017 102.686 -521.017 105.006Z" fill="#333333"/>
<path d="M-470.686 105.006C-470.686 107.326 -468.809 109.206 -466.492 109.206C-464.176 109.206 -462.298 107.326 -462.298 105.006C-462.298 102.686 -464.176 100.806 -466.492 100.806C-468.809 100.806 -470.686 102.686 -470.686 105.006Z" fill="#333333"/>
<path d="M-420.356 105.006C-420.356 107.326 -418.478 109.206 -416.161 109.206C-413.845 109.206 -411.967 107.326 -411.967 105.006C-411.967 102.686 -413.845 100.806 -416.161 100.806C-418.478 100.806 -420.356 102.686 -420.356 105.006Z" fill="#333333"/>
<path d="M-370.025 105.006C-370.025 107.326 -368.147 109.206 -365.831 109.206C-363.515 109.206 -361.637 107.326 -361.637 105.006C-361.637 102.686 -363.515 100.806 -365.831 100.806C-368.147 100.806 -370.025 102.686 -370.025 105.006Z" fill="#333333"/>
<path d="M-546.182 130.207C-546.182 132.527 -544.304 134.408 -541.988 134.408C-539.672 134.408 -537.794 132.527 -537.794 130.207C-537.794 127.888 -539.672 126.007 -541.988 126.007C-544.304 126.007 -546.182 127.888 -546.182 130.207Z" fill="#333333"/>
<path d="M-495.852 130.207C-495.852 132.527 -493.974 134.408 -491.657 134.408C-489.341 134.408 -487.463 132.527 -487.463 130.207C-487.463 127.888 -489.341 126.007 -491.657 126.007C-493.974 126.007 -495.852 127.888 -495.852 130.207Z" fill="#333333"/>
<path d="M-445.521 130.207C-445.521 132.527 -443.643 134.408 -441.327 134.408C-439.01 134.408 -437.133 132.527 -437.133 130.207C-437.133 127.888 -439.01 126.007 -441.327 126.007C-443.643 126.007 -445.521 127.888 -445.521 130.207Z" fill="#333333"/>
<path d="M-395.19 130.207C-395.19 132.527 -393.313 134.408 -390.996 134.408C-388.68 134.408 -386.802 132.527 -386.802 130.207C-386.802 127.888 -388.68 126.007 -390.996 126.007C-393.313 126.007 -395.19 127.888 -395.19 130.207Z" fill="#333333"/>
<path d="M-344.86 130.207C-344.86 132.527 -342.982 134.408 -340.666 134.408C-338.349 134.408 -336.471 132.527 -336.471 130.207C-336.471 127.888 -338.349 126.007 -340.666 126.007C-342.982 126.007 -344.86 127.888 -344.86 130.207Z" fill="#333333"/>
<path d="M-571.348 155.409C-571.348 157.729 -569.47 159.609 -567.153 159.609C-564.837 159.609 -562.959 157.729 -562.959 155.409C-562.959 153.089 -564.837 151.209 -567.153 151.209C-569.47 151.209 -571.348 153.089 -571.348 155.409Z" fill="#333333"/>
<path d="M-521.017 155.409C-521.017 157.729 -519.139 159.609 -516.823 159.609C-514.506 159.609 -512.629 157.729 -512.629 155.409C-512.629 153.089 -514.506 151.209 -516.823 151.209C-519.139 151.209 -521.017 153.089 -521.017 155.409Z" fill="#333333"/>
<path d="M-470.686 155.409C-470.686 157.729 -468.809 159.609 -466.492 159.609C-464.176 159.609 -462.298 157.729 -462.298 155.409C-462.298 153.089 -464.176 151.209 -466.492 151.209C-468.809 151.209 -470.686 153.089 -470.686 155.409Z" fill="#333333"/>
<path d="M-420.356 155.409C-420.356 157.729 -418.478 159.609 -416.161 159.609C-413.845 159.609 -411.967 157.729 -411.967 155.409C-411.967 153.089 -413.845 151.209 -416.161 151.209C-418.478 151.209 -420.356 153.089 -420.356 155.409Z" fill="#333333"/>
<path d="M-370.025 155.409C-370.025 157.729 -368.147 159.609 -365.831 159.609C-363.515 159.609 -361.637 157.729 -361.637 155.409C-361.637 153.089 -363.515 151.209 -365.831 151.209C-368.147 151.209 -370.025 153.089 -370.025 155.409Z" fill="#333333"/>
<path d="M-546.182 180.61C-546.182 182.93 -544.304 184.81 -541.988 184.81C-539.672 184.81 -537.794 182.93 -537.794 180.61C-537.794 178.291 -539.672 176.41 -541.988 176.41C-544.304 176.41 -546.182 178.291 -546.182 180.61Z" fill="#333333"/>
<path d="M-495.852 180.61C-495.852 182.93 -493.974 184.81 -491.657 184.81C-489.341 184.81 -487.463 182.93 -487.463 180.61C-487.463 178.291 -489.341 176.41 -491.657 176.41C-493.974 176.41 -495.852 178.291 -495.852 180.61Z" fill="#333333"/>
<path d="M-445.521 180.61C-445.521 182.93 -443.643 184.81 -441.327 184.81C-439.01 184.81 -437.133 182.93 -437.133 180.61C-437.133 178.291 -439.01 176.41 -441.327 176.41C-443.643 176.41 -445.521 178.291 -445.521 180.61Z" fill="#333333"/>
<path d="M-395.19 180.61C-395.19 182.93 -393.313 184.81 -390.996 184.81C-388.68 184.81 -386.802 182.93 -386.802 180.61C-386.802 178.291 -388.68 176.41 -390.996 176.41C-393.313 176.41 -395.19 178.291 -395.19 180.61Z" fill="#333333"/>
<path d="M-344.86 180.61C-344.86 182.93 -342.982 184.81 -340.666 184.81C-338.349 184.81 -336.471 182.93 -336.471 180.61C-336.471 178.291 -338.349 176.41 -340.666 176.41C-342.982 176.41 -344.86 178.291 -344.86 180.61Z" fill="#333333"/>
<path d="M-571.348 205.812C-571.348 208.131 -569.47 210.012 -567.153 210.012C-564.837 210.012 -562.959 208.131 -562.959 205.812C-562.959 203.492 -564.837 201.611 -567.153 201.611C-569.47 201.611 -571.348 203.492 -571.348 205.812Z" fill="#333333"/>
<path d="M-521.017 205.812C-521.017 208.131 -519.139 210.012 -516.823 210.012C-514.506 210.012 -512.629 208.131 -512.629 205.812C-512.629 203.492 -514.506 201.611 -516.823 201.611C-519.139 201.611 -521.017 203.492 -521.017 205.812Z" fill="#333333"/>
<path d="M-470.686 205.812C-470.686 208.131 -468.809 210.012 -466.492 210.012C-464.176 210.012 -462.298 208.131 -462.298 205.812C-462.298 203.492 -464.176 201.611 -466.492 201.611C-468.809 201.611 -470.686 203.492 -470.686 205.812Z" fill="#333333"/>
<path d="M-420.356 205.812C-420.356 208.131 -418.478 210.012 -416.161 210.012C-413.845 210.012 -411.967 208.131 -411.967 205.812C-411.967 203.492 -413.845 201.611 -416.161 201.611C-418.478 201.611 -420.356 203.492 -420.356 205.812Z" fill="#333333"/>
<path d="M-370.025 205.812C-370.025 208.131 -368.147 210.012 -365.831 210.012C-363.515 210.012 -361.637 208.131 -361.637 205.812C-361.637 203.492 -363.515 201.611 -365.831 201.611C-368.147 201.611 -370.025 203.492 -370.025 205.812Z" fill="#333333"/>
<path d="M-546.182 231.013C-546.182 233.333 -544.304 235.213 -541.988 235.213C-539.672 235.213 -537.794 233.333 -537.794 231.013C-537.794 228.693 -539.672 226.813 -541.988 226.813C-544.304 226.813 -546.182 228.693 -546.182 231.013Z" fill="#333333"/>
<path d="M-495.852 231.013C-495.852 233.333 -493.974 235.213 -491.657 235.213C-489.341 235.213 -487.463 233.333 -487.463 231.013C-487.463 228.693 -489.341 226.813 -491.657 226.813C-493.974 226.813 -495.852 228.693 -495.852 231.013Z" fill="#333333"/>
<path d="M-445.521 231.013C-445.521 233.333 -443.643 235.213 -441.327 235.213C-439.01 235.213 -437.133 233.333 -437.133 231.013C-437.133 228.693 -439.01 226.813 -441.327 226.813C-443.643 226.813 -445.521 228.693 -445.521 231.013Z" fill="#333333"/>
<path d="M-395.19 231.013C-395.19 233.333 -393.313 235.213 -390.996 235.213C-388.68 235.213 -386.802 233.333 -386.802 231.013C-386.802 228.693 -388.68 226.813 -390.996 226.813C-393.313 226.813 -395.19 228.693 -395.19 231.013Z" fill="#333333"/>
<path d="M-344.86 231.013C-344.86 233.333 -342.982 235.213 -340.666 235.213C-338.349 235.213 -336.471 233.333 -336.471 231.013C-336.471 228.693 -338.349 226.813 -340.666 226.813C-342.982 226.813 -344.86 228.693 -344.86 231.013Z" fill="#333333"/>
<path d="M-571.348 256.215C-571.348 258.534 -569.47 260.415 -567.153 260.415C-564.837 260.415 -562.959 258.534 -562.959 256.215C-562.959 253.895 -564.837 252.014 -567.153 252.014C-569.47 252.014 -571.348 253.895 -571.348 256.215Z" fill="#333333"/>
<path d="M-521.017 256.215C-521.017 258.534 -519.139 260.415 -516.823 260.415C-514.506 260.415 -512.629 258.534 -512.629 256.215C-512.629 253.895 -514.506 252.014 -516.823 252.014C-519.139 252.014 -521.017 253.895 -521.017 256.215Z" fill="#333333"/>
<path d="M-470.686 256.215C-470.686 258.534 -468.809 260.415 -466.492 260.415C-464.176 260.415 -462.298 258.534 -462.298 256.215C-462.298 253.895 -464.176 252.014 -466.492 252.014C-468.809 252.014 -470.686 253.895 -470.686 256.215Z" fill="#333333"/>
<path d="M-420.356 256.215C-420.356 258.534 -418.478 260.415 -416.161 260.415C-413.845 260.415 -411.967 258.534 -411.967 256.215C-411.967 253.895 -413.845 252.014 -416.161 252.014C-418.478 252.014 -420.356 253.895 -420.356 256.215Z" fill="#333333"/>
<path d="M-370.025 256.215C-370.025 258.534 -368.147 260.415 -365.831 260.415C-363.515 260.415 -361.637 258.534 -361.637 256.215C-361.637 253.895 -363.515 252.014 -365.831 252.014C-368.147 252.014 -370.025 253.895 -370.025 256.215Z" fill="#333333"/>
<path d="M-546.182 281.416C-546.182 283.736 -544.304 285.616 -541.988 285.616C-539.672 285.616 -537.794 283.736 -537.794 281.416C-537.794 279.096 -539.672 277.216 -541.988 277.216C-544.304 277.216 -546.182 279.096 -546.182 281.416Z" fill="#333333"/>
<path d="M-495.852 281.416C-495.852 283.736 -493.974 285.616 -491.657 285.616C-489.341 285.616 -487.463 283.736 -487.463 281.416C-487.463 279.096 -489.341 277.216 -491.657 277.216C-493.974 277.216 -495.852 279.096 -495.852 281.416Z" fill="#333333"/>
<path d="M-445.521 281.416C-445.521 283.736 -443.643 285.616 -441.327 285.616C-439.01 285.616 -437.133 283.736 -437.133 281.416C-437.133 279.096 -439.01 277.216 -441.327 277.216C-443.643 277.216 -445.521 279.096 -445.521 281.416Z" fill="#333333"/>
<path d="M-395.19 281.416C-395.19 283.736 -393.313 285.616 -390.996 285.616C-388.68 285.616 -386.802 283.736 -386.802 281.416C-386.802 279.096 -388.68 277.216 -390.996 277.216C-393.313 277.216 -395.19 279.096 -395.19 281.416Z" fill="#333333"/>
<path d="M-344.86 281.416C-344.86 283.736 -342.982 285.616 -340.666 285.616C-338.349 285.616 -336.471 283.736 -336.471 281.416C-336.471 279.096 -338.349 277.216 -340.666 277.216C-342.982 277.216 -344.86 279.096 -344.86 281.416Z" fill="#333333"/>
<path d="M-571.348 306.617C-571.348 308.937 -569.47 310.818 -567.153 310.818C-564.837 310.818 -562.959 308.937 -562.959 306.617C-562.959 304.298 -564.837 302.417 -567.153 302.417C-569.47 302.417 -571.348 304.298 -571.348 306.617Z" fill="#333333"/>
<path d="M-521.017 306.617C-521.017 308.937 -519.139 310.818 -516.823 310.818C-514.506 310.818 -512.629 308.937 -512.629 306.617C-512.629 304.298 -514.506 302.417 -516.823 302.417C-519.139 302.417 -521.017 304.298 -521.017 306.617Z" fill="#333333"/>
<path d="M-470.686 306.617C-470.686 308.937 -468.809 310.818 -466.492 310.818C-464.176 310.818 -462.298 308.937 -462.298 306.617C-462.298 304.298 -464.176 302.417 -466.492 302.417C-468.809 302.417 -470.686 304.298 -470.686 306.617Z" fill="#333333"/>
<path d="M-420.356 306.617C-420.356 308.937 -418.478 310.818 -416.161 310.818C-413.845 310.818 -411.967 308.937 -411.967 306.617C-411.967 304.298 -413.845 302.417 -416.161 302.417C-418.478 302.417 -420.356 304.298 -420.356 306.617Z" fill="#333333"/>
<path d="M-370.025 306.617C-370.025 308.937 -368.147 310.818 -365.831 310.818C-363.515 310.818 -361.637 308.937 -361.637 306.617C-361.637 304.298 -363.515 302.417 -365.831 302.417C-368.147 302.417 -370.025 304.298 -370.025 306.617Z" fill="#333333"/>
</svg>
