<svg width="26" height="48" viewBox="0 0 26 48" fill="none" xmlns="http://www.w3.org/2000/svg">
<path d="M1.67355 1.85612C2.03114 1.23853 2.69071 0.858276 3.40435 0.858276H23.4831C24.5876 0.858276 25.4831 1.75371 25.4831 2.85828V44.672C25.4831 45.4716 25.0067 46.1944 24.2719 46.5098L21.6549 47.6331C21.4057 47.7401 21.1373 47.7952 20.8661 47.7952H3.02377C1.92863 47.7952 1.03716 46.9145 1.02392 45.8194L0.523253 4.40443C0.518899 4.04433 0.611855 3.68974 0.792304 3.37809L1.67355 1.85612Z" fill="black"/>
<rect x="1.5" y="2.56177" width="21.4698" height="44.9383" rx="1.5" fill="white" stroke="#0A0A0A"/>
<path d="M19 8H6C4.89543 8 4 8.89543 4 10V38" stroke="black"/>
<rect x="3.5" y="7.5" width="16" height="31" rx="1.5" stroke="black"/>
<rect x="10" y="40.8058" width="4.49396" height="4.49396" rx="2" fill="black"/>
<rect width="4.99329" height="0.998659" rx="0.499329" transform="matrix(1 0 0 -1 10.0039 4.85278)" fill="black"/>
</svg>
