<svg width="266" height="125" viewBox="0 0 266 125" fill="none" xmlns="http://www.w3.org/2000/svg">
<path d="M209.891 49.3761L209.891 44.1701C209.891 42.5504 211.163 41.2778 212.783 41.2778L231.293 41.2778C232.913 41.2778 234.186 42.5504 234.186 44.1701L234.186 49.3761C234.186 50.9957 232.913 52.2683 231.293 52.2683L212.783 52.2683C211.163 52.2683 209.891 50.9957 209.891 49.3761Z" stroke="black" stroke-width="2.26923" stroke-miterlimit="10"/>
<path d="M228.69 52.5579L228.69 46.7734L215.386 46.7734L215.386 52.5579L228.69 52.5579Z" fill="black"/>
<path d="M235.053 46.7734L253.563 46.7734C256.745 46.7734 259.348 49.3765 259.348 52.5579L259.348 82.6372" stroke="black" stroke-width="3" stroke-miterlimit="10" stroke-linecap="square" stroke-linejoin="round"/>
<path d="M208.444 46.7734L171.424 46.7734" stroke="black" stroke-width="3" stroke-miterlimit="10" stroke-linecap="square" stroke-linejoin="round"/>
<path d="M252.696 82.6365C252.696 86.3104 255.674 89.2887 259.348 89.2887C263.022 89.2887 266 86.3104 266 82.6365C266 78.9626 263.022 75.9844 259.348 75.9844C255.674 75.9844 252.696 78.9626 252.696 82.6365Z" fill="black"/>
<path d="M156.963 46.4837C156.963 50.1576 159.941 53.1358 163.615 53.1358C167.289 53.1358 170.267 50.1576 170.267 46.4837C170.267 42.8098 167.289 39.8315 163.615 39.8315C159.941 39.8315 156.963 42.8098 156.963 46.4837Z" stroke="white" stroke-width="2.3531" stroke-miterlimit="10" stroke-linecap="square" stroke-linejoin="round"/>
<path d="M6.14895 114.495L6.14895 69.7833C6.14895 64.2604 10.6261 59.7833 16.1489 59.7833L174.728 59.7833" stroke="black" stroke-width="3"/>
<path d="M0.191003 114.568C0.191003 111.016 3.07064 108.136 6.62285 108.136C10.1751 108.136 13.0547 111.016 13.0547 114.568C13.0547 118.12 10.1751 121 6.62285 121C3.07064 121 0.191003 118.12 0.191003 114.568Z" fill="black"/>
<path d="M174.242 60.3885C174.242 56.8363 177.121 53.9566 180.674 53.9566C184.226 53.9566 187.105 56.8363 187.105 60.3885C187.105 63.9407 184.226 66.8203 180.674 66.8203C177.121 66.8203 174.242 63.9407 174.242 60.3885Z" stroke="white" stroke-width="3" stroke-miterlimit="10" stroke-linecap="square" stroke-linejoin="round"/>
<path d="M181.609 50.497L181.356 51.9709L182.829 52.2287C193.792 54.1477 202.143 63.8423 202.143 75.5456C202.143 88.65 191.724 99.2177 178.915 99.2177H86.1819C73.3727 99.2177 62.9531 88.65 62.9531 75.5456C62.9531 64.4659 70.4608 55.1822 80.5252 52.6136L81.7252 52.3074L81.6516 51.0711C81.6349 50.7912 81.6169 50.5207 81.5992 50.2563C81.5477 49.4855 81.4997 48.766 81.4997 48.0137C81.4997 26.225 98.8433 8.60913 120.184 8.60913C133.827 8.60913 145.787 15.8076 152.638 26.6928L153.287 27.7231L154.428 27.3005C156.657 26.4754 159.016 26.0093 161.45 26.0093C172.744 26.0093 181.928 35.3184 181.928 46.881C181.928 48.1086 181.813 49.3133 181.609 50.497Z" fill="black" stroke="black" stroke-width="3"/>
<path d="M173.077 43.3879L172.824 44.8617L174.297 45.1196C185.26 47.0386 193.611 56.7332 193.611 68.4365C193.611 81.5409 183.192 92.1086 170.382 92.1086H77.6496C64.8404 92.1086 54.4209 81.5409 54.4209 68.4365C54.4209 57.3568 61.9286 48.0731 71.9929 45.5045L73.193 45.1982L73.1194 43.9619C73.1027 43.682 73.0846 43.4116 73.067 43.1472C73.0155 42.3763 72.9674 41.6569 72.9674 40.9046C72.9674 19.1159 90.311 1.5 111.652 1.5C125.295 1.5 137.255 8.6985 144.106 19.5836L144.754 20.614L145.896 20.1914C148.125 19.3663 150.484 18.9002 152.918 18.9002C164.212 18.9002 173.395 28.2093 173.395 39.7718C173.395 40.9994 173.281 42.2041 173.077 43.3879Z" fill="white" stroke="black" stroke-width="3"/>
<path d="M163 91.9093L162.972 81H155.502C154.791 76.5957 153.098 73.8358 150.502 70.2076L155.821 64.8884L145 56L141.407 60.5V62.2766C137.78 59.6593 135.993 59.127 131.58 58.4014V50H120.808V58.4014C116.394 59.1269 113.491 60.8668 109.864 63.4842L101 56L94.2905 62.7101L103.169 70.2082C100.572 73.8363 98.8512 78.0162 98.1399 82.4205L86 82.4228V91.9116L98.1695 91.9087C98.9032 96.2918 100.638 100.447 103.238 104.051L95.4899 110.745L102.199 117.455L109.962 110.745C113.568 113.325 116.433 115.04 120.808 115.759L117.5 117.455V123.329H131.58V115.762C135.954 115.043 137.161 114.946 140.767 112.367L146.17 117.77L155.822 109.441L150.434 104.054C153.034 100.45 154.769 96.2947 155.502 91.9116L163 91.9093Z" fill="black" stroke="black" stroke-width="3"/>
<circle cx="125.748" cy="88.0263" r="16.4159" fill="white" stroke="black" stroke-width="7"/>
<path fill-rule="evenodd" clip-rule="evenodd" d="M158.329 81.4199V90.9093L150.832 90.9116C150.098 95.2947 148.364 99.4497 145.764 103.054L151.151 108.441L144.442 115.151L139.039 109.748C135.434 112.327 131.284 114.043 126.909 114.762V122.329H117.422V114.759C113.047 114.04 108.897 112.325 105.292 109.745L99.889 115.148L93.1795 108.439L98.5673 103.051C95.967 99.4468 94.2327 95.2918 93.499 90.9087L86 90.8262V81.3374L93.4694 81.4205C94.1807 77.0162 95.9019 72.8363 98.4981 69.2082L93.1789 63.889L99.8884 57.1789L105.194 62.4842C108.821 59.8668 113.006 58.1269 117.42 57.4014V50H126.909V57.4014C131.323 58.127 135.508 59.8669 139.135 62.4842L144.44 57.1789L151.15 63.8884L145.831 69.2076C148.427 72.8358 150.149 77.0156 150.86 81.4199H158.329ZM122.165 99.0808C129.298 99.0808 135.081 93.2982 135.081 86.1649C135.081 79.0316 129.298 73.249 122.165 73.249C115.032 73.249 109.249 79.0316 109.249 86.1649C109.249 93.2982 115.032 99.0808 122.165 99.0808Z" fill="white"/>
<path d="M158.329 90.9093L158.33 92.4093L159.829 92.4088V90.9093H158.329ZM158.329 81.4199H159.829V79.9199H158.329V81.4199ZM150.832 90.9116L150.831 89.4116L149.562 89.412L149.353 90.664L150.832 90.9116ZM145.764 103.054L144.547 102.176L143.8 103.211L144.703 104.114L145.764 103.054ZM151.151 108.441L152.212 109.502L153.273 108.441L152.212 107.381L151.151 108.441ZM144.442 115.151L143.381 116.212L144.442 117.272L145.503 116.212L144.442 115.151ZM139.039 109.748L140.1 108.687L139.201 107.788L138.166 108.528L139.039 109.748ZM126.909 114.762L126.666 113.282L125.409 113.489V114.762H126.909ZM126.909 122.329V123.829H128.409V122.329H126.909ZM117.422 122.329H115.922V123.829H117.422V122.329ZM117.422 114.759H118.922V113.486L117.665 113.279L117.422 114.759ZM105.292 109.745L106.165 108.525L105.13 107.785L104.231 108.684L105.292 109.745ZM99.889 115.148L98.8283 116.209L99.889 117.269L100.95 116.209L99.889 115.148ZM93.1795 108.439L92.1188 107.378L91.0582 108.439L92.1188 109.499L93.1795 108.439ZM98.5673 103.051L99.6279 104.111L100.531 103.209L99.7837 102.173L98.5673 103.051ZM93.499 90.9087L94.9784 90.6611L94.7711 89.4226L93.5155 89.4088L93.499 90.9087ZM86 90.8262H84.5V92.3098L85.9835 92.3261L86 90.8262ZM86 81.3374L86.0167 79.8375L84.5 79.8207V81.3374H86ZM93.4694 81.4205L93.4527 82.9204L94.7442 82.9348L94.9502 81.6597L93.4694 81.4205ZM98.4981 69.2082L99.718 70.0811L100.458 69.0468L99.5588 68.1475L98.4981 69.2082ZM93.1789 63.889L92.1182 62.8283L91.0576 63.889L92.1182 64.9496L93.1789 63.889ZM99.8884 57.1789L100.949 56.1182L99.8883 55.0575L98.8277 56.1183L99.8884 57.1789ZM105.194 62.4842L104.133 63.5449L105.036 64.4478L106.071 63.7006L105.194 62.4842ZM117.42 57.4014L117.663 58.8815L118.92 58.675V57.4014H117.42ZM117.42 50V48.5H115.92V50H117.42ZM126.909 50H128.409V48.5H126.909V50ZM126.909 57.4014H125.409V58.6749L126.666 58.8815L126.909 57.4014ZM139.135 62.4842L138.257 63.7006L139.293 64.4478L140.196 63.5449L139.135 62.4842ZM144.44 57.1789L145.501 56.1182L144.44 55.0576L143.38 56.1182L144.44 57.1789ZM151.15 63.8884L152.211 64.949L153.272 63.8883L152.211 62.8277L151.15 63.8884ZM145.831 69.2076L144.77 68.147L143.871 69.0463L144.611 70.0805L145.831 69.2076ZM150.86 81.4199L149.379 81.6591L149.583 82.9199H150.86V81.4199ZM159.829 90.9093V81.4199H156.829V90.9093H159.829ZM150.832 92.4116L158.33 92.4093L158.329 89.4093L150.831 89.4116L150.832 92.4116ZM146.98 103.931C149.715 100.14 151.54 95.7698 152.311 91.1592L149.353 90.664C148.657 94.8197 147.013 98.759 144.547 102.176L146.98 103.931ZM152.212 107.381L146.824 101.993L144.703 104.114L150.091 109.502L152.212 107.381ZM145.503 116.212L152.212 109.502L150.091 107.381L143.381 114.09L145.503 116.212ZM137.978 110.809L143.381 116.212L145.503 114.09L140.1 108.687L137.978 110.809ZM127.153 116.242C131.754 115.486 136.12 113.681 139.912 110.968L138.166 108.528C134.748 110.974 130.813 112.6 126.666 113.282L127.153 116.242ZM128.409 122.329V114.762H125.409V122.329H128.409ZM117.422 123.829H126.909V120.829H117.422V123.829ZM115.922 114.759V122.329H118.922V114.759H115.922ZM104.419 110.965C108.211 113.678 112.577 115.483 117.178 116.239L117.665 113.279C113.518 112.597 109.583 110.971 106.165 108.525L104.419 110.965ZM100.95 116.209L106.353 110.806L104.231 108.684L98.8283 114.087L100.95 116.209ZM92.1188 109.499L98.8283 116.209L100.95 114.087L94.2401 107.378L92.1188 109.499ZM97.5066 101.99L92.1188 107.378L94.2401 109.499L99.6279 104.111L97.5066 101.99ZM92.0196 91.1563C92.7913 95.7669 94.6157 100.137 97.3508 103.928L99.7837 102.173C97.3184 98.7561 95.674 94.8168 94.9784 90.6611L92.0196 91.1563ZM85.9835 92.3261L93.4825 92.4086L93.5155 89.4088L86.0165 89.3263L85.9835 92.3261ZM84.5 81.3374V90.8262H87.5V81.3374H84.5ZM93.4861 79.9206L86.0167 79.8375L85.9833 82.8373L93.4527 82.9204L93.4861 79.9206ZM97.2783 68.3353C94.5473 72.1517 92.7368 76.5485 91.9886 81.1813L94.9502 81.6597C95.6246 77.4839 97.2565 73.521 99.718 70.0811L97.2783 68.3353ZM92.1182 64.9496L97.4375 70.2689L99.5588 68.1475L94.2396 62.8283L92.1182 64.9496ZM98.8277 56.1183L92.1182 62.8283L94.2396 64.9496L100.949 58.2395L98.8277 56.1183ZM106.254 61.4235L100.949 56.1182L98.8277 58.2396L104.133 63.5449L106.254 61.4235ZM117.177 55.9213C112.534 56.6845 108.131 58.5146 104.316 61.2678L106.071 63.7006C109.51 61.2191 113.478 59.5694 117.663 58.8815L117.177 55.9213ZM115.92 50V57.4014H118.92V50H115.92ZM126.909 48.5H117.42V51.5H126.909V48.5ZM128.409 57.4014V50H125.409V57.4014H128.409ZM140.013 61.2678C136.197 58.5147 131.795 56.6846 127.153 55.9213L126.666 58.8815C130.85 59.5695 134.818 61.2191 138.257 63.7006L140.013 61.2678ZM143.38 56.1182L138.074 61.4235L140.196 63.5449L145.501 58.2396L143.38 56.1182ZM152.211 62.8277L145.501 56.1182L143.38 58.2396L150.09 64.9491L152.211 62.8277ZM146.892 70.2683L152.211 64.949L150.09 62.8277L144.77 68.147L146.892 70.2683ZM152.341 81.1808C151.592 76.5479 149.782 72.1511 147.051 68.3347L144.611 70.0805C147.073 73.5204 148.705 77.4833 149.379 81.6591L152.341 81.1808ZM158.329 79.9199H150.86V82.9199H158.329V79.9199ZM133.581 86.1649C133.581 92.4697 128.47 97.5808 122.165 97.5808V100.581C130.127 100.581 136.581 94.1266 136.581 86.1649H133.581ZM122.165 74.749C128.47 74.749 133.581 79.8601 133.581 86.1649H136.581C136.581 78.2032 130.127 71.749 122.165 71.749V74.749ZM110.749 86.1649C110.749 79.8601 115.86 74.749 122.165 74.749V71.749C114.203 71.749 107.749 78.2032 107.749 86.1649H110.749ZM122.165 97.5808C115.86 97.5808 110.749 92.4697 110.749 86.1649H107.749C107.749 94.1266 114.203 100.581 122.165 100.581V97.5808Z" fill="black"/>
</svg>
