<svg width="39" height="102" viewBox="0 0 39 102" fill="none" xmlns="http://www.w3.org/2000/svg">
<path fill-rule="evenodd" clip-rule="evenodd" d="M4.92188 31.5642L2.07812 30.45L5.84044 26.6802C6.48032 25.9817 7.39995 25.5437 8.42188 25.5437H35.4219C37.3549 25.5437 38.9219 27.1107 38.9219 29.0437V94.0437C38.9219 95.0145 38.5267 95.8929 37.8884 96.5269L37.9219 96.5437L33.8281 100.575L33.4075 97.5437H8.42188C6.48888 97.5437 4.92188 95.9767 4.92188 94.0437V31.5642Z" fill="black"/>
<path fill-rule="evenodd" clip-rule="evenodd" d="M26.4354 30.0437C25.6919 30.0437 25.0948 29.4304 25.1147 28.6871L25.7832 3.76494C25.8238 2.25038 27.0633 1.0437 28.5784 1.0437C30.0935 1.0437 31.3329 2.25038 31.3736 3.76494L32.042 28.6871C32.0619 29.4304 31.4648 30.0437 30.7213 30.0437H26.4354ZM4.42188 31.0437C3.31731 31.0437 2.42188 31.9391 2.42188 33.0437V98.0437C2.42188 99.1483 3.31731 100.044 4.42188 100.044H31.4219C32.5264 100.044 33.4219 99.1483 33.4219 98.0437V33.0437C33.4219 31.9391 32.5264 31.0437 31.4219 31.0437H4.42188Z" fill="white"/>
<path fill-rule="evenodd" clip-rule="evenodd" d="M24.2637 29.5437C24.16 29.2699 24.1068 28.9716 24.1151 28.6603L24.7835 3.73813C24.8387 1.68192 26.5214 0.0437012 28.5784 0.0437012C30.6353 0.0437012 32.3181 1.68192 32.3732 3.73813L33.0416 28.6603C33.0528 29.077 32.9536 29.4705 32.7708 29.8131C34.0342 30.3412 34.9219 31.5888 34.9219 33.0437V98.0437C34.9219 99.9767 33.3549 101.544 31.4219 101.544H4.42188C2.48888 101.544 0.921875 99.9767 0.921875 98.0437V33.0437C0.921875 31.1107 2.48888 29.5437 4.42188 29.5437H24.2637ZM26.1144 28.7139C26.1095 28.8946 26.2547 29.0437 26.4354 29.0437H30.7213C30.902 29.0437 31.0472 28.8946 31.0423 28.7139L30.7428 17.5437H26.4219L26.4158 17.4766L26.1144 28.7139ZM26.5615 12.0437H30.5952L30.3739 3.79175C30.3478 2.81884 29.5516 2.0437 28.5784 2.0437C27.6051 2.0437 26.8089 2.81884 26.7828 3.79175L26.5615 12.0437ZM3.92188 33.0437C3.92188 32.7676 4.14573 32.5437 4.42188 32.5437H31.4219C31.698 32.5437 31.9219 32.7676 31.9219 33.0437V56.6799C30.889 63.6752 24.8605 69.0437 17.5781 69.0437C11.2844 69.0437 5.92717 65.0339 3.92188 59.4295V33.0437ZM3.92188 63.8071V98.0437C3.92188 98.3198 4.14573 98.5437 4.42188 98.5437H31.4219C31.698 98.5437 31.9219 98.3198 31.9219 98.0437V62.7046C29.0818 67.6856 23.7221 71.0437 17.5781 71.0437C11.8992 71.0437 6.89032 68.1747 3.92188 63.8071ZM7.07812 38.0437C7.07812 37.4914 7.52584 37.0437 8.07812 37.0437H27.0781C27.6304 37.0437 28.0781 37.4914 28.0781 38.0437V58.0437C28.0781 58.596 27.6304 59.0437 27.0781 59.0437H8.07812C7.52584 59.0437 7.07812 58.596 7.07812 58.0437V38.0437ZM26.0781 41.0437H10.0781V57.0437H26.0781V41.0437ZM7.42188 81.0437C6.31731 81.0437 5.42188 80.1483 5.42188 79.0437C5.42188 77.9391 6.31731 77.0437 7.42188 77.0437H10.4219C11.5264 77.0437 12.4219 77.9391 12.4219 79.0437C12.4219 80.1483 11.5264 81.0437 10.4219 81.0437H7.42188ZM14.4219 79.0437C14.4219 80.1483 15.3173 81.0437 16.4219 81.0437H19.4219C20.5264 81.0437 21.4219 80.1483 21.4219 79.0437C21.4219 77.9391 20.5264 77.0437 19.4219 77.0437H16.4219C15.3173 77.0437 14.4219 77.9391 14.4219 79.0437ZM25.4219 81.0437C24.3173 81.0437 23.4219 80.1483 23.4219 79.0437C23.4219 77.9391 24.3173 77.0437 25.4219 77.0437H28.4219C29.5264 77.0437 30.4219 77.9391 30.4219 79.0437C30.4219 80.1483 29.5264 81.0437 28.4219 81.0437H25.4219ZM5.42188 85.0437C5.42188 86.1483 6.31731 87.0437 7.42188 87.0437H10.4219C11.5264 87.0437 12.4219 86.1483 12.4219 85.0437C12.4219 83.9391 11.5264 83.0437 10.4219 83.0437H7.42188C6.31731 83.0437 5.42188 83.9391 5.42188 85.0437ZM16.4219 87.0437C15.3173 87.0437 14.4219 86.1483 14.4219 85.0437C14.4219 83.9391 15.3173 83.0437 16.4219 83.0437H19.4219C20.5264 83.0437 21.4219 83.9391 21.4219 85.0437C21.4219 86.1483 20.5264 87.0437 19.4219 87.0437H16.4219ZM23.4219 85.0437C23.4219 86.1483 24.3173 87.0437 25.4219 87.0437H28.4219C29.5264 87.0437 30.4219 86.1483 30.4219 85.0437C30.4219 83.9391 29.5264 83.0437 28.4219 83.0437H25.4219C24.3173 83.0437 23.4219 83.9391 23.4219 85.0437ZM7.42188 93.0437C6.31731 93.0437 5.42188 92.1483 5.42188 91.0437C5.42188 89.9391 6.31731 89.0437 7.42188 89.0437H10.4219C11.5264 89.0437 12.4219 89.9391 12.4219 91.0437C12.4219 92.1483 11.5264 93.0437 10.4219 93.0437H7.42188ZM14.4219 91.0437C14.4219 92.1483 15.3173 93.0437 16.4219 93.0437H19.4219C20.5264 93.0437 21.4219 92.1483 21.4219 91.0437C21.4219 89.9391 20.5264 89.0437 19.4219 89.0437H16.4219C15.3173 89.0437 14.4219 89.9391 14.4219 91.0437ZM25.4219 93.0437C24.3173 93.0437 23.4219 92.1483 23.4219 91.0437C23.4219 89.9391 24.3173 89.0437 25.4219 89.0437H28.4219C29.5264 89.0437 30.4219 89.9391 30.4219 91.0437C30.4219 92.1483 29.5264 93.0437 28.4219 93.0437H25.4219Z" fill="black"/>
</svg>
