<svg width="56" height="88" viewBox="0 0 56 88" fill="none" xmlns="http://www.w3.org/2000/svg">
<path d="M4 5.24756C4 2.48613 6.23858 0.247559 9 0.247559H51C53.7614 0.247559 56 2.48614 56 5.24756V78.3711C56 81.1325 53.7614 83.3711 51 83.3711H9C6.23858 83.3711 4 81.1325 4 78.3711V5.24756Z" fill="black"/>
<path fill-rule="evenodd" clip-rule="evenodd" d="M51 2.24756H9C7.34315 2.24756 6 3.5907 6 5.24756V78.3711C6 80.0279 7.34315 81.3711 9 81.3711H51C52.6569 81.3711 54 80.0279 54 78.3711V5.24756C54 3.5907 52.6569 2.24756 51 2.24756ZM9 0.247559C6.23858 0.247559 4 2.48613 4 5.24756V78.3711C4 81.1325 6.23858 83.3711 9 83.3711H51C53.7614 83.3711 56 81.1325 56 78.3711V5.24756C56 2.48614 53.7614 0.247559 51 0.247559H9Z" fill="black"/>
<path d="M0 9.24756C0 6.48613 2.23858 4.24756 5 4.24756H47C49.7614 4.24756 52 6.48614 52 9.24756V82.3711C52 85.1325 49.7614 87.3711 47 87.3711H5C2.23858 87.3711 0 85.1325 0 82.3711V9.24756Z" fill="white"/>
<path fill-rule="evenodd" clip-rule="evenodd" d="M47 6.24756H5C3.34315 6.24756 2 7.5907 2 9.24756V82.3711C2 84.0279 3.34315 85.3711 5 85.3711H47C48.6569 85.3711 50 84.0279 50 82.3711V9.24756C50 7.5907 48.6569 6.24756 47 6.24756ZM5 4.24756C2.23858 4.24756 0 6.48613 0 9.24756V82.3711C0 85.1325 2.23858 87.3711 5 87.3711H47C49.7614 87.3711 52 85.1325 52 82.3711V9.24756C52 6.48614 49.7614 4.24756 47 4.24756H5Z" fill="#0A0A0A"/>
<rect x="24" y="81.2476" width="4" height="4" rx="2" transform="rotate(-90 24 81.2476)" fill="black"/>
<rect x="31" y="81.2476" width="4" height="7" rx="2" transform="rotate(-90 31 81.2476)" fill="black"/>
<rect x="14" y="81.2476" width="4" height="7" rx="2" transform="rotate(-90 14 81.2476)" fill="black"/>
<path fill-rule="evenodd" clip-rule="evenodd" d="M9 11.2476C7.34315 11.2476 6 12.5907 6 14.2476V69.2476C6 70.9044 7.34314 72.2476 9 72.2476H43C44.6569 72.2476 46 70.9044 46 69.2476V14.2476C46 12.5907 44.6569 11.2476 43 11.2476H9ZM9.5 70.2476H43C43.5523 70.2476 44 69.7998 44 69.2476V14.7476H10C9.72386 14.7476 9.5 14.9714 9.5 15.2476V70.2476Z" fill="black"/>
<path d="M50.75 85.6851L54.3281 82.1069L51.5312 80.8101L50.75 85.6851Z" fill="black"/>
<path d="M5.53125 1.62256L1.5625 5.59131L3.59375 6.26318L5.53125 1.62256Z" fill="black"/>
</svg>
