<svg width="330" height="126" viewBox="0 0 330 126" fill="none" xmlns="http://www.w3.org/2000/svg">
<path d="M2.51221 81.3269L2.51221 83.3006C2.51221 85.1263 3.94317 86.6066 5.71953 86.7546L5.96625 86.7546L5.96625 96.6233C5.96625 101.508 9.96306 105.505 14.8481 105.505C19.7331 105.505 23.7299 101.508 23.7299 96.6233L23.7299 86.7546L23.9766 86.7546C25.8023 86.6559 27.1839 85.1263 27.1839 83.3006L27.1839 81.3269C27.1839 79.4025 25.6543 77.8728 23.7299 77.8728L5.96624 77.8728C4.04185 77.8728 2.51221 79.4025 2.51221 81.3269Z" fill="black"/>
<path d="M-1.05687e-06 80.0707L-9.70591e-07 82.0445C-8.90787e-07 83.8702 1.43096 85.3505 3.20732 85.4985L3.45404 85.4985L3.45404 95.3672C3.45404 100.252 7.45086 104.249 12.3359 104.249C17.2209 104.249 21.2177 100.252 21.2177 95.3672L21.2177 85.4985L21.4644 85.4985C23.2901 85.3998 24.6717 83.8702 24.6717 82.0445L24.6717 80.0707C24.6717 78.1464 23.1421 76.6167 21.2177 76.6167L3.45404 76.6167C1.52964 76.6167 -1.14098e-06 78.1464 -1.05687e-06 80.0707Z" fill="white"/>
<path d="M12.3359 103.262C16.6781 103.262 20.2308 99.7092 20.2308 95.367L20.2308 84.5115L4.44092 84.5115L4.44092 95.367C4.44092 99.7092 7.99364 103.262 12.3359 103.262Z" stroke="black" stroke-width="1.5" stroke-miterlimit="10" stroke-linecap="square" stroke-linejoin="round"/>
<path d="M3.45399 84.5117L21.2176 84.5117C22.5992 84.5117 23.6848 83.4262 23.6848 82.0445L23.6848 80.0708C23.6848 78.6892 22.5992 77.6036 21.2176 77.6036L3.45399 77.6036C2.07237 77.6036 0.986816 78.6892 0.986816 80.0708L0.986816 82.0445C0.986816 83.4262 2.07237 84.5117 3.45399 84.5117Z" stroke="black" stroke-width="1.5" stroke-miterlimit="10" stroke-linecap="square" stroke-linejoin="round"/>
<path d="M4.44092 85.4991L19.0466 96.9961L19.2439 84.5122L4.44092 85.4991Z" fill="black"/>
<path d="M297.675 46.4479L297.675 62.8242C297.675 65.5856 295.436 67.8242 292.675 67.8242L261.226 67.8242C258.465 67.8242 256.226 65.5856 256.226 62.8242L256.226 46.4479C256.226 43.6865 258.465 41.4479 261.226 41.4479L292.675 41.4479C295.436 41.4479 297.675 43.6865 297.675 46.4479Z" fill="white" stroke="black" stroke-width="4" stroke-miterlimit="10" stroke-linecap="round" stroke-linejoin="round"/>
<path d="M295.163 43.9357L295.163 60.312C295.163 63.0734 292.924 65.312 290.163 65.312L258.714 65.312C255.953 65.312 253.714 63.0734 253.714 60.312L253.714 43.9357C253.714 41.1743 255.953 38.9357 258.714 38.9357L290.163 38.9357C292.924 38.9357 295.163 41.1743 295.163 43.9357Z" fill="white" stroke="black" stroke-width="2" stroke-miterlimit="10" stroke-linecap="round" stroke-linejoin="round"/>
<path d="M289.298 38.1702L289.298 34.0355" stroke="black" stroke-width="2" stroke-miterlimit="10" stroke-linecap="square" stroke-linejoin="round"/>
<path d="M283.251 38.1704L283.251 33.9944" stroke="black" stroke-width="2" stroke-miterlimit="10" stroke-linecap="square" stroke-linejoin="round"/>
<path d="M277.269 38.1704L277.269 33.9944" stroke="black" stroke-width="2" stroke-miterlimit="10" stroke-linecap="square" stroke-linejoin="round"/>
<path d="M271.287 38.1704L271.287 33.9531" stroke="black" stroke-width="2" stroke-miterlimit="10" stroke-linecap="square" stroke-linejoin="round"/>
<path d="M265.305 38.1704L265.305 33.9531" stroke="black" stroke-width="2" stroke-miterlimit="10" stroke-linecap="square" stroke-linejoin="round"/>
<path d="M259.257 38.1704L259.257 33.9117" stroke="black" stroke-width="2" stroke-miterlimit="10" stroke-linecap="square" stroke-linejoin="round"/>
<path d="M289.298 73.083L289.298 65.7864" stroke="black" stroke-width="2" stroke-miterlimit="10" stroke-linecap="square" stroke-linejoin="round"/>
<path d="M283.251 73.0171L283.251 65.7862" stroke="black" stroke-width="2" stroke-miterlimit="10" stroke-linecap="square" stroke-linejoin="round"/>
<path d="M277.269 72.9514L277.269 65.7863" stroke="black" stroke-width="2" stroke-miterlimit="10" stroke-linecap="square" stroke-linejoin="round"/>
<path d="M271.287 72.9514L271.287 65.7863" stroke="black" stroke-width="2" stroke-miterlimit="10" stroke-linecap="square" stroke-linejoin="round"/>
<path d="M265.305 72.886L265.305 65.7866" stroke="black" stroke-width="2" stroke-miterlimit="10" stroke-linecap="square" stroke-linejoin="round"/>
<path d="M259.257 72.886L259.257 65.7866" stroke="black" stroke-width="2" stroke-miterlimit="10" stroke-linecap="square" stroke-linejoin="round"/>
<path d="M313.956 118.44C313.956 114.265 317.341 110.881 321.516 110.881C325.691 110.881 329.075 114.265 329.075 118.44C329.075 122.615 325.691 126 321.516 126C317.341 126 313.956 122.615 313.956 118.44Z" fill="black"/>
<path d="M42.7041 59.0554C42.7041 54.8804 46.0887 51.4959 50.2637 51.4959C54.4387 51.4959 57.8232 54.8804 57.8232 59.0554C57.8232 63.2305 54.4387 66.615 50.2637 66.615C46.0887 66.615 42.7041 63.2305 42.7041 59.0554Z" fill="black"/>
<path d="M253.209 52.7051L167.754 52.7051" stroke="black" stroke-width="3" stroke-miterlimit="10" stroke-linecap="square" stroke-linejoin="round"/>
<path d="M321.516 118.44L321.516 59.2784C321.516 55.663 318.558 52.7049 314.942 52.7049L296.536 52.7049" stroke="black" stroke-width="3" stroke-miterlimit="10" stroke-linecap="square" stroke-linejoin="round"/>
<path d="M32.6558 59.032L165.793 59.032" stroke="black" stroke-width="3" stroke-miterlimit="10" stroke-linecap="square" stroke-linejoin="round"/>
<path d="M12.0083 75.7358L12.0083 65.5586C12.0083 61.9432 14.9664 58.9851 18.5818 58.9851L36.9877 58.9851" stroke="black" stroke-width="3" stroke-miterlimit="10" stroke-linecap="square" stroke-linejoin="round"/>
<path d="M151.977 53.0339C151.977 48.8589 155.362 45.4744 159.537 45.4744C163.712 45.4744 167.096 48.8589 167.096 53.0339C167.096 57.209 163.712 60.5935 159.537 60.5935C155.362 60.5935 151.977 57.209 151.977 53.0339Z" stroke="white" stroke-width="5.1848" stroke-miterlimit="10" stroke-linecap="square" stroke-linejoin="round"/>
<path d="M216.609 50.497L216.356 51.9709L217.829 52.2287C228.792 54.1477 237.143 63.8423 237.143 75.5456C237.143 88.65 226.724 99.2177 213.915 99.2177H121.182C108.373 99.2177 97.9531 88.65 97.9531 75.5456C97.9531 64.4659 105.461 55.1822 115.525 52.6136L116.725 52.3074L116.652 51.0711C116.635 50.7912 116.617 50.5207 116.599 50.2563C116.548 49.4855 116.5 48.766 116.5 48.0137C116.5 26.225 133.843 8.60913 155.184 8.60913C168.827 8.60913 180.787 15.8076 187.638 26.6928L188.287 27.7231L189.428 27.3005C191.657 26.4754 194.016 26.0093 196.45 26.0093C207.744 26.0093 216.928 35.3184 216.928 46.881C216.928 48.1086 216.813 49.3133 216.609 50.497Z" fill="black" stroke="black" stroke-width="3"/>
<path d="M208.077 43.3879L207.824 44.8617L209.297 45.1196C220.26 47.0386 228.611 56.7332 228.611 68.4365C228.611 81.5409 218.192 92.1086 205.382 92.1086H112.65C99.8404 92.1086 89.4209 81.5409 89.4209 68.4365C89.4209 57.3568 96.9286 48.0731 106.993 45.5045L108.193 45.1982L108.119 43.9619C108.103 43.682 108.085 43.4116 108.067 43.1472C108.015 42.3763 107.967 41.6569 107.967 40.9046C107.967 19.1159 125.311 1.5 146.652 1.5C160.295 1.5 172.255 8.6985 179.106 19.5836L179.754 20.614L180.896 20.1914C183.125 19.3663 185.484 18.9002 187.918 18.9002C199.212 18.9002 208.395 28.2093 208.395 39.7718C208.395 40.9994 208.281 42.2041 208.077 43.3879Z" fill="white" stroke="black" stroke-width="3"/>
<g clip-path="url(#clip0)">
<path d="M158.618 68.9987V69.9987H159.618H163.543C163.714 69.9987 163.851 70.1362 163.851 70.3071V103.016C163.851 105.35 161.952 107.249 159.618 107.249H122.984C120.65 107.249 118.751 105.35 118.751 103.016V70.3071C118.751 70.1362 118.888 69.9987 119.059 69.9987H122.984H123.984V68.9987V63.7653C123.984 54.2176 131.753 46.4485 141.301 46.4485C150.849 46.4485 158.618 54.2176 158.618 63.7653V68.9987ZM146.213 96.2197L146.213 96.2192L145.448 89.3421C146.763 88.1792 147.535 86.5089 147.535 84.6989C147.535 81.2602 144.74 78.4655 141.301 78.4655C137.863 78.4655 135.068 81.2604 135.068 84.6989C135.068 86.5089 135.84 88.1792 137.155 89.3421L136.39 96.2191L136.39 96.2194C136.318 96.872 136.527 97.5248 136.964 98.0133C137.402 98.5032 138.029 98.7824 138.685 98.7824H143.918C144.574 98.7824 145.2 98.5032 145.638 98.0133L145.638 98.0132C146.075 97.5245 146.285 96.8718 146.213 96.2197ZM151.768 69.9987H152.768V68.9987V63.7653C152.768 57.4417 147.625 52.2986 141.301 52.2986C134.978 52.2986 129.834 57.4417 129.834 63.7653V68.9987V69.9987H130.834H151.768Z" fill="black" stroke="black" stroke-width="2"/>
<path d="M154.222 66.4868V67.4868H155.222H159.147C159.318 67.4868 159.455 67.6243 159.455 67.7952V100.504C159.455 102.838 157.556 104.737 155.222 104.737H118.588C116.254 104.737 114.355 102.838 114.355 100.504V67.7952C114.355 67.6243 114.492 67.4868 114.663 67.4868H118.588H119.588V66.4868V61.2533C119.588 51.7056 127.357 43.9365 136.905 43.9365C146.453 43.9365 154.222 51.7056 154.222 61.2533V66.4868ZM141.817 93.7077L141.817 93.7072L141.052 86.8301C142.367 85.6673 143.139 83.9969 143.139 82.1869C143.139 78.7483 140.344 75.9535 136.905 75.9535C133.467 75.9535 130.672 78.7484 130.672 82.1869C130.672 83.9969 131.444 85.6673 132.759 86.8301L131.994 93.7072L131.994 93.7075C131.922 94.36 132.131 95.0129 132.568 95.5014C133.006 95.9913 133.633 96.2705 134.289 96.2705H139.522C140.178 96.2705 140.804 95.9912 141.242 95.5014L141.242 95.5012C141.679 95.0125 141.889 94.3598 141.817 93.7077ZM147.372 67.4868H148.372V66.4868V61.2533C148.372 54.9298 143.229 49.7866 136.905 49.7866C130.582 49.7866 125.438 54.9298 125.438 61.2533V66.4868V67.4868H126.438H147.372Z" fill="white" stroke="black" stroke-width="2"/>
</g>
<defs>
<clipPath id="clip0">
<rect width="62.8007" height="72.8488" fill="white" transform="translate(105.505 42.9365)"/>
</clipPath>
</defs>
</svg>
