<svg width="331" height="126" viewBox="0 0 331 126" fill="none" xmlns="http://www.w3.org/2000/svg">
<path d="M3.51196 81.3269L3.51196 83.3006C3.51196 85.1263 4.94292 86.6066 6.71928 86.7546L6.966 86.7546L6.966 96.6233C6.966 101.508 10.9628 105.505 15.8478 105.505C20.7328 105.505 24.7296 101.508 24.7296 96.6233L24.7296 86.7546L24.9763 86.7546C26.8021 86.6559 28.1837 85.1263 28.1837 83.3006L28.1837 81.3269C28.1837 79.4025 26.654 77.8728 24.7296 77.8728L6.966 77.8728C5.04161 77.8728 3.51196 79.4025 3.51196 81.3269Z" fill="black"/>
<path d="M0.999999 80.0707L0.999999 82.0445C0.999999 83.8702 2.43096 85.3505 4.20732 85.4985L4.45404 85.4985L4.45404 95.3672C4.45404 100.252 8.45086 104.249 13.3359 104.249C18.2209 104.249 22.2177 100.252 22.2177 95.3672L22.2177 85.4985L22.4644 85.4985C24.2901 85.3998 25.6717 83.8702 25.6717 82.0445L25.6717 80.0707C25.6717 78.1464 24.1421 76.6167 22.2177 76.6167L4.45404 76.6167C2.52964 76.6167 0.999999 78.1464 0.999999 80.0707Z" fill="white"/>
<path d="M13.3359 103.262C17.6781 103.262 21.2308 99.7092 21.2308 95.367L21.2308 84.5115L5.44092 84.5115L5.44092 95.367C5.44092 99.7092 8.99364 103.262 13.3359 103.262Z" stroke="black" stroke-width="2" stroke-miterlimit="10" stroke-linecap="square" stroke-linejoin="round"/>
<path d="M4.45399 84.5117L22.2176 84.5117C23.5992 84.5117 24.6848 83.4262 24.6848 82.0445L24.6848 80.0708C24.6848 78.6892 23.5992 77.6036 22.2176 77.6036L4.45399 77.6036C3.07237 77.6036 1.98682 78.6892 1.98682 80.0708L1.98682 82.0445C1.98682 83.4262 3.07237 84.5117 4.45399 84.5117Z" stroke="black" stroke-width="2" stroke-miterlimit="10" stroke-linecap="square" stroke-linejoin="round"/>
<path d="M6.44092 85.4991L21.0466 96.9961L21.2439 84.5122L6.44092 85.4991Z" fill="black"/>
<path d="M314.957 118.44C314.957 114.265 318.341 110.881 322.516 110.881C326.691 110.881 330.076 114.265 330.076 118.44C330.076 122.615 326.691 126 322.516 126C318.341 126 314.957 122.615 314.957 118.44Z" fill="black"/>
<path d="M43.7046 59.0554C43.7046 54.8804 47.0891 51.4959 51.2642 51.4959C55.4392 51.4959 58.8237 54.8804 58.8237 59.0554C58.8237 63.2305 55.4392 66.615 51.2642 66.615C47.0891 66.615 43.7046 63.2305 43.7046 59.0554Z" fill="black"/>
<path d="M254.21 52.7051L168.754 52.7051" stroke="black" stroke-width="3" stroke-miterlimit="10" stroke-linecap="square" stroke-linejoin="round"/>
<path d="M322.516 118.44L322.516 59.2784C322.516 55.663 319.558 52.7049 315.943 52.7049L247.537 52.7049" stroke="black" stroke-width="3" stroke-miterlimit="10" stroke-linecap="square" stroke-linejoin="round"/>
<path d="M33.6565 59.032L166.794 59.032" stroke="black" stroke-width="3" stroke-miterlimit="10" stroke-linecap="square" stroke-linejoin="round"/>
<path d="M13.0085 75.7358L13.0085 65.5586C13.0085 61.9432 15.9666 58.9851 19.5821 58.9851L37.988 58.9851" stroke="black" stroke-width="3" stroke-miterlimit="10" stroke-linecap="square" stroke-linejoin="round"/>
<path d="M152.978 53.0339C152.978 48.8589 156.362 45.4744 160.537 45.4744C164.712 45.4744 168.097 48.8589 168.097 53.0339C168.097 57.209 164.712 60.5935 160.537 60.5935C156.362 60.5935 152.978 57.209 152.978 53.0339Z" stroke="white" stroke-width="5.1848" stroke-miterlimit="10" stroke-linecap="square" stroke-linejoin="round"/>
<path d="M217.609 50.497L217.356 51.9709L218.829 52.2287C229.792 54.1477 238.143 63.8423 238.143 75.5456C238.143 88.65 227.724 99.2177 214.914 99.2177H122.182C109.372 99.2177 98.9529 88.65 98.9529 75.5456C98.9529 64.4659 106.461 55.1822 116.525 52.6136L117.725 52.3074L117.651 51.0711C117.635 50.7912 117.617 50.5207 117.599 50.2563C117.547 49.4855 117.499 48.766 117.499 48.0137C117.499 26.225 134.843 8.60913 156.184 8.60913C169.827 8.60913 181.787 15.8076 188.638 26.6928L189.286 27.7231L190.428 27.3005C192.657 26.4754 195.016 26.0093 197.45 26.0093C208.744 26.0093 217.927 35.3184 217.927 46.881C217.927 48.1086 217.813 49.3133 217.609 50.497Z" fill="black" stroke="black" stroke-width="3"/>
<path d="M209.077 43.3879L208.824 44.8617L210.297 45.1196C221.26 47.0386 229.611 56.7332 229.611 68.4365C229.611 81.5409 219.192 92.1086 206.382 92.1086H113.65C100.84 92.1086 90.4209 81.5409 90.4209 68.4365C90.4209 57.3568 97.9286 48.0731 107.993 45.5045L109.193 45.1982L109.119 43.9619C109.103 43.682 109.085 43.4116 109.067 43.1472C109.015 42.3763 108.967 41.6569 108.967 40.9046C108.967 19.1159 126.311 1.5 147.652 1.5C161.295 1.5 173.255 8.6985 180.106 19.5836L180.754 20.614L181.896 20.1914C184.125 19.3663 186.484 18.9002 188.918 18.9002C200.212 18.9002 209.395 28.2093 209.395 39.7718C209.395 40.9994 209.281 42.2041 209.077 43.3879Z" fill="white" stroke="black" stroke-width="3"/>
</svg>
